<svg width="400" height="80" viewBox="0 0 400 80" fill="none" xmlns="http://www.w3.org/2000/svg">
<rect width="400" height="80" rx="5" fill="#3367D6"/>
<rect x="2" y="2" width="77" height="76" rx="2" fill="white"/>
<path d="M112.574 44.605C112.574 44.2368 112.518 43.9064 112.404 43.6138C112.3 43.3117 112.102 43.0379 111.81 42.7925C111.517 42.5376 111.106 42.2874 110.578 42.042C110.049 41.7965 109.365 41.5417 108.524 41.2773C107.59 40.9753 106.702 40.6354 105.862 40.2578C105.032 39.8802 104.295 39.4412 103.653 38.9409C103.021 38.4312 102.521 37.8411 102.152 37.1709C101.794 36.5007 101.614 35.7218 101.614 34.8345C101.614 33.9754 101.803 33.1966 102.181 32.498C102.558 31.79 103.087 31.1859 103.767 30.6855C104.446 30.1758 105.249 29.784 106.174 29.5103C107.108 29.2365 108.133 29.0996 109.247 29.0996C110.766 29.0996 112.093 29.3734 113.226 29.9209C114.358 30.4684 115.236 31.2189 115.859 32.1724C116.492 33.1258 116.808 34.2161 116.808 35.4434H112.588C112.588 34.8392 112.461 34.3105 112.206 33.8574C111.961 33.3949 111.583 33.0314 111.073 32.7671C110.573 32.5028 109.94 32.3706 109.176 32.3706C108.439 32.3706 107.826 32.4839 107.335 32.7104C106.844 32.9276 106.476 33.2249 106.23 33.6025C105.985 33.9707 105.862 34.3861 105.862 34.8486C105.862 35.1979 105.947 35.5142 106.117 35.7974C106.297 36.0806 106.561 36.3449 106.91 36.5903C107.259 36.8358 107.689 37.0671 108.199 37.2842C108.708 37.5013 109.299 37.7137 109.969 37.9214C111.092 38.2612 112.079 38.6436 112.928 39.0684C113.787 39.4932 114.505 39.9699 115.081 40.4985C115.656 41.0272 116.091 41.6266 116.383 42.2969C116.676 42.9671 116.822 43.7271 116.822 44.5767C116.822 45.4735 116.648 46.2759 116.298 46.9839C115.949 47.6919 115.444 48.2913 114.783 48.7822C114.122 49.2731 113.334 49.646 112.418 49.9009C111.503 50.1558 110.479 50.2832 109.346 50.2832C108.326 50.2832 107.321 50.151 106.33 49.8867C105.338 49.613 104.437 49.2023 103.625 48.6548C102.823 48.1073 102.181 47.4087 101.699 46.5591C101.218 45.7095 100.977 44.7041 100.977 43.543H105.239C105.239 44.1849 105.338 44.7277 105.537 45.1714C105.735 45.6151 106.013 45.9738 106.372 46.2476C106.74 46.5213 107.174 46.7196 107.675 46.8423C108.185 46.965 108.742 47.0264 109.346 47.0264C110.082 47.0264 110.686 46.9225 111.158 46.7148C111.64 46.5072 111.994 46.2192 112.22 45.8511C112.456 45.4829 112.574 45.0675 112.574 44.605ZM123.761 34.6787V50H119.668V34.6787H123.761ZM119.414 30.6855C119.414 30.0908 119.621 29.5999 120.037 29.2129C120.452 28.8258 121.009 28.6323 121.708 28.6323C122.397 28.6323 122.949 28.8258 123.364 29.2129C123.789 29.5999 124.001 30.0908 124.001 30.6855C124.001 31.2803 123.789 31.7712 123.364 32.1582C122.949 32.5452 122.397 32.7388 121.708 32.7388C121.009 32.7388 120.452 32.5452 120.037 32.1582C119.621 31.7712 119.414 31.2803 119.414 30.6855ZM136.831 34.6787H140.526V49.4902C140.526 50.8874 140.215 52.0721 139.592 53.0444C138.978 54.0262 138.119 54.7673 137.015 55.2676C135.91 55.7773 134.626 56.0322 133.163 56.0322C132.521 56.0322 131.841 55.9473 131.124 55.7773C130.416 55.6074 129.736 55.3431 129.085 54.9844C128.443 54.6257 127.905 54.1725 127.471 53.625L129.269 51.2178C129.741 51.7653 130.289 52.1901 130.912 52.4922C131.535 52.8037 132.224 52.9595 132.979 52.9595C133.715 52.9595 134.338 52.8226 134.848 52.5488C135.358 52.2845 135.75 51.8927 136.023 51.3735C136.297 50.8638 136.434 50.2454 136.434 49.5186V38.2188L136.831 34.6787ZM126.522 42.5234V42.2261C126.522 41.0555 126.664 39.9935 126.947 39.04C127.239 38.0771 127.65 37.2511 128.179 36.562C128.717 35.8729 129.368 35.3395 130.133 34.9619C130.897 34.5843 131.761 34.3955 132.724 34.3955C133.744 34.3955 134.598 34.5843 135.287 34.9619C135.976 35.3395 136.543 35.8776 136.986 36.5762C137.43 37.2653 137.775 38.0819 138.02 39.0259C138.275 39.9604 138.473 40.9847 138.615 42.0986V42.75C138.473 43.8167 138.261 44.8079 137.978 45.7236C137.694 46.6393 137.321 47.4417 136.859 48.1309C136.396 48.8105 135.82 49.3392 135.131 49.7168C134.452 50.0944 133.64 50.2832 132.696 50.2832C131.752 50.2832 130.897 50.0897 130.133 49.7026C129.378 49.3156 128.731 48.7728 128.193 48.0742C127.655 47.3757 127.239 46.5544 126.947 45.6104C126.664 44.6663 126.522 43.6374 126.522 42.5234ZM130.6 42.2261V42.5234C130.6 43.1559 130.661 43.7459 130.784 44.2935C130.907 44.841 131.096 45.3271 131.351 45.752C131.615 46.1673 131.941 46.493 132.328 46.729C132.724 46.9556 133.191 47.0688 133.729 47.0688C134.475 47.0688 135.084 46.9131 135.556 46.6016C136.028 46.2806 136.382 45.8416 136.618 45.2847C136.854 44.7277 136.991 44.0858 137.029 43.3589V41.5039C137.01 40.9092 136.93 40.3758 136.788 39.9038C136.646 39.4224 136.448 39.0117 136.193 38.6719C135.938 38.332 135.608 38.0677 135.202 37.8789C134.796 37.6901 134.315 37.5957 133.758 37.5957C133.22 37.5957 132.752 37.7184 132.356 37.9639C131.969 38.1999 131.643 38.5256 131.379 38.9409C131.124 39.3563 130.931 39.8472 130.798 40.4136C130.666 40.9705 130.6 41.5747 130.6 42.2261ZM147.691 37.9497V50H143.613V34.6787H147.437L147.691 37.9497ZM147.097 41.8013H145.992C145.992 40.6685 146.139 39.6489 146.431 38.7427C146.724 37.827 147.134 37.0482 147.663 36.4062C148.192 35.7549 148.819 35.2593 149.546 34.9194C150.283 34.5701 151.104 34.3955 152.01 34.3955C152.728 34.3955 153.384 34.4993 153.979 34.707C154.573 34.9147 155.083 35.2451 155.508 35.6982C155.942 36.1514 156.272 36.7508 156.499 37.4966C156.735 38.2424 156.853 39.1533 156.853 40.2295V50H152.747V40.2153C152.747 39.5356 152.652 39.007 152.463 38.6294C152.275 38.2518 151.996 37.9875 151.628 37.8364C151.269 37.6759 150.826 37.5957 150.297 37.5957C149.749 37.5957 149.273 37.7043 148.867 37.9214C148.47 38.1385 148.14 38.4406 147.875 38.8276C147.621 39.2052 147.427 39.6489 147.295 40.1587C147.163 40.6685 147.097 41.216 147.097 41.8013ZM171.48 34.6787V50H167.388V34.6787H171.48ZM167.133 30.6855C167.133 30.0908 167.341 29.5999 167.756 29.2129C168.172 28.8258 168.729 28.6323 169.427 28.6323C170.116 28.6323 170.669 28.8258 171.084 29.2129C171.509 29.5999 171.721 30.0908 171.721 30.6855C171.721 31.2803 171.509 31.7712 171.084 32.1582C170.669 32.5452 170.116 32.7388 169.427 32.7388C168.729 32.7388 168.172 32.5452 167.756 32.1582C167.341 31.7712 167.133 31.2803 167.133 30.6855ZM178.844 37.9497V50H174.766V34.6787H178.589L178.844 37.9497ZM178.249 41.8013H177.145C177.145 40.6685 177.291 39.6489 177.583 38.7427C177.876 37.827 178.287 37.0482 178.815 36.4062C179.344 35.7549 179.972 35.2593 180.699 34.9194C181.435 34.5701 182.256 34.3955 183.163 34.3955C183.88 34.3955 184.536 34.4993 185.131 34.707C185.726 34.9147 186.235 35.2451 186.66 35.6982C187.094 36.1514 187.425 36.7508 187.651 37.4966C187.887 38.2424 188.005 39.1533 188.005 40.2295V50H183.899V40.2153C183.899 39.5356 183.805 39.007 183.616 38.6294C183.427 38.2518 183.148 37.9875 182.78 37.8364C182.422 37.6759 181.978 37.5957 181.449 37.5957C180.902 37.5957 180.425 37.7043 180.019 37.9214C179.623 38.1385 179.292 38.4406 179.028 38.8276C178.773 39.2052 178.579 39.6489 178.447 40.1587C178.315 40.6685 178.249 41.216 178.249 41.8013ZM202.704 46.0352L205.89 34.6787H208.481L207.646 39.1392L204.459 50H202.293L202.704 46.0352ZM201.089 34.6787L203.369 46.021L203.582 50H201.033L197.153 34.6787H201.089ZM211.398 45.8369L213.621 34.6787H217.572L213.692 50H211.157L211.398 45.8369ZM208.835 34.6787L212.007 45.9502L212.446 50H210.265L207.079 39.1533L206.272 34.6787H208.835ZM223.93 34.6787V50H219.837V34.6787H223.93ZM219.583 30.6855C219.583 30.0908 219.79 29.5999 220.206 29.2129C220.621 28.8258 221.178 28.6323 221.876 28.6323C222.566 28.6323 223.118 28.8258 223.533 29.2129C223.958 29.5999 224.17 30.0908 224.17 30.6855C224.17 31.2803 223.958 31.7712 223.533 32.1582C223.118 32.5452 222.566 32.7388 221.876 32.7388C221.178 32.7388 220.621 32.5452 220.206 32.1582C219.79 31.7712 219.583 31.2803 219.583 30.6855ZM234.805 34.6787V37.5674H225.884V34.6787H234.805ZM228.093 30.8979H232.171V45.3838C232.171 45.8275 232.228 46.1673 232.341 46.4033C232.464 46.6393 232.643 46.8045 232.879 46.8989C233.115 46.9839 233.412 47.0264 233.771 47.0264C234.026 47.0264 234.252 47.0169 234.451 46.998C234.658 46.9697 234.833 46.9414 234.975 46.9131L234.989 49.915C234.639 50.0283 234.262 50.118 233.856 50.1841C233.45 50.2502 233.002 50.2832 232.511 50.2832C231.614 50.2832 230.83 50.1369 230.16 49.8442C229.499 49.5422 228.99 49.0607 228.631 48.3999C228.272 47.7391 228.093 46.8706 228.093 45.7944V30.8979ZM241.106 28.25V50H237.028V28.25H241.106ZM240.525 41.8013H239.407C239.416 40.7345 239.558 39.7528 239.832 38.856C240.105 37.9497 240.497 37.1662 241.007 36.5054C241.517 35.8351 242.125 35.3159 242.833 34.9478C243.551 34.5796 244.344 34.3955 245.212 34.3955C245.968 34.3955 246.652 34.5041 247.266 34.7212C247.889 34.9289 248.422 35.2687 248.866 35.7407C249.319 36.2033 249.668 36.8122 249.914 37.5674C250.159 38.3226 250.282 39.2383 250.282 40.3145V50H246.175V40.2861C246.175 39.6064 246.076 39.0731 245.878 38.686C245.689 38.2896 245.411 38.0111 245.042 37.8506C244.684 37.6807 244.24 37.5957 243.711 37.5957C243.126 37.5957 242.626 37.7043 242.21 37.9214C241.805 38.1385 241.479 38.4406 241.233 38.8276C240.988 39.2052 240.809 39.6489 240.695 40.1587C240.582 40.6685 240.525 41.216 240.525 41.8013ZM277.2 39.2241V47.3945C276.879 47.7816 276.384 48.2017 275.713 48.6548C275.043 49.0985 274.179 49.4808 273.122 49.8018C272.065 50.1227 270.786 50.2832 269.285 50.2832C267.954 50.2832 266.741 50.0661 265.646 49.6318C264.55 49.1882 263.606 48.5415 262.813 47.6919C262.03 46.8423 261.426 45.8039 261.001 44.5767C260.576 43.34 260.364 41.9287 260.364 40.3428V39.0542C260.364 37.4683 260.567 36.057 260.973 34.8203C261.388 33.5837 261.978 32.5405 262.743 31.6909C263.507 30.8413 264.418 30.1947 265.476 29.751C266.533 29.3073 267.708 29.0854 269.001 29.0854C270.795 29.0854 272.268 29.3781 273.419 29.9634C274.571 30.5392 275.449 31.3416 276.053 32.3706C276.667 33.3901 277.044 34.5607 277.186 35.8823H273.065C272.962 35.1838 272.763 34.5749 272.471 34.0557C272.178 33.5365 271.758 33.1305 271.21 32.8379C270.672 32.5452 269.974 32.3989 269.115 32.3989C268.407 32.3989 267.774 32.5452 267.217 32.8379C266.67 33.1211 266.207 33.5412 265.83 34.0981C265.452 34.6551 265.164 35.3442 264.966 36.1655C264.768 36.9868 264.668 37.9403 264.668 39.0259V40.3428C264.668 41.4189 264.772 42.3724 264.98 43.2031C265.188 44.0244 265.494 44.7183 265.9 45.2847C266.316 45.8416 266.826 46.2617 267.43 46.5449C268.034 46.8281 268.737 46.9697 269.54 46.9697C270.21 46.9697 270.767 46.9131 271.21 46.7998C271.664 46.6865 272.027 46.5496 272.301 46.3892C272.584 46.2192 272.801 46.0588 272.952 45.9077V42.2544H269.072V39.2241H277.2ZM279.721 42.4951V42.1978C279.721 41.0744 279.881 40.0407 280.202 39.0967C280.523 38.1432 280.99 37.3172 281.604 36.6187C282.218 35.9201 282.973 35.3773 283.87 34.9902C284.766 34.5938 285.795 34.3955 286.957 34.3955C288.118 34.3955 289.151 34.5938 290.058 34.9902C290.964 35.3773 291.724 35.9201 292.337 36.6187C292.96 37.3172 293.432 38.1432 293.753 39.0967C294.074 40.0407 294.235 41.0744 294.235 42.1978V42.4951C294.235 43.609 294.074 44.6427 293.753 45.5962C293.432 46.5402 292.96 47.3662 292.337 48.0742C291.724 48.7728 290.969 49.3156 290.072 49.7026C289.175 50.0897 288.146 50.2832 286.985 50.2832C285.824 50.2832 284.79 50.0897 283.884 49.7026C282.987 49.3156 282.227 48.7728 281.604 48.0742C280.99 47.3662 280.523 46.5402 280.202 45.5962C279.881 44.6427 279.721 43.609 279.721 42.4951ZM283.799 42.1978V42.4951C283.799 43.137 283.855 43.7365 283.969 44.2935C284.082 44.8504 284.261 45.3413 284.507 45.7661C284.762 46.1815 285.092 46.5072 285.498 46.7432C285.904 46.9792 286.4 47.0972 286.985 47.0972C287.551 47.0972 288.037 46.9792 288.443 46.7432C288.849 46.5072 289.175 46.1815 289.42 45.7661C289.666 45.3413 289.845 44.8504 289.958 44.2935C290.081 43.7365 290.143 43.137 290.143 42.4951V42.1978C290.143 41.5747 290.081 40.9894 289.958 40.4419C289.845 39.8849 289.661 39.394 289.406 38.9692C289.161 38.535 288.835 38.1951 288.429 37.9497C288.023 37.7043 287.532 37.5815 286.957 37.5815C286.381 37.5815 285.89 37.7043 285.484 37.9497C285.087 38.1951 284.762 38.535 284.507 38.9692C284.261 39.394 284.082 39.8849 283.969 40.4419C283.855 40.9894 283.799 41.5747 283.799 42.1978ZM296.09 42.4951V42.1978C296.09 41.0744 296.25 40.0407 296.571 39.0967C296.892 38.1432 297.36 37.3172 297.973 36.6187C298.587 35.9201 299.342 35.3773 300.239 34.9902C301.136 34.5938 302.165 34.3955 303.326 34.3955C304.487 34.3955 305.521 34.5938 306.427 34.9902C307.333 35.3773 308.093 35.9201 308.707 36.6187C309.33 37.3172 309.802 38.1432 310.123 39.0967C310.444 40.0407 310.604 41.0744 310.604 42.1978V42.4951C310.604 43.609 310.444 44.6427 310.123 45.5962C309.802 46.5402 309.33 47.3662 308.707 48.0742C308.093 48.7728 307.338 49.3156 306.441 49.7026C305.544 50.0897 304.515 50.2832 303.354 50.2832C302.193 50.2832 301.159 50.0897 300.253 49.7026C299.356 49.3156 298.596 48.7728 297.973 48.0742C297.36 47.3662 296.892 46.5402 296.571 45.5962C296.25 44.6427 296.09 43.609 296.09 42.4951ZM300.168 42.1978V42.4951C300.168 43.137 300.225 43.7365 300.338 44.2935C300.451 44.8504 300.631 45.3413 300.876 45.7661C301.131 46.1815 301.461 46.5072 301.867 46.7432C302.273 46.9792 302.769 47.0972 303.354 47.0972C303.92 47.0972 304.407 46.9792 304.812 46.7432C305.218 46.5072 305.544 46.1815 305.79 45.7661C306.035 45.3413 306.214 44.8504 306.328 44.2935C306.45 43.7365 306.512 43.137 306.512 42.4951V42.1978C306.512 41.5747 306.45 40.9894 306.328 40.4419C306.214 39.8849 306.03 39.394 305.775 38.9692C305.53 38.535 305.204 38.1951 304.798 37.9497C304.392 37.7043 303.902 37.5815 303.326 37.5815C302.75 37.5815 302.259 37.7043 301.853 37.9497C301.457 38.1951 301.131 38.535 300.876 38.9692C300.631 39.394 300.451 39.8849 300.338 40.4419C300.225 40.9894 300.168 41.5747 300.168 42.1978ZM322.81 34.6787H326.506V49.4902C326.506 50.8874 326.194 52.0721 325.571 53.0444C324.958 54.0262 324.099 54.7673 322.994 55.2676C321.89 55.7773 320.606 56.0322 319.143 56.0322C318.501 56.0322 317.821 55.9473 317.104 55.7773C316.396 55.6074 315.716 55.3431 315.064 54.9844C314.423 54.6257 313.884 54.1725 313.45 53.625L315.249 51.2178C315.721 51.7653 316.268 52.1901 316.891 52.4922C317.514 52.8037 318.203 52.9595 318.958 52.9595C319.695 52.9595 320.318 52.8226 320.828 52.5488C321.337 52.2845 321.729 51.8927 322.003 51.3735C322.277 50.8638 322.414 50.2454 322.414 49.5186V38.2188L322.81 34.6787ZM312.501 42.5234V42.2261C312.501 41.0555 312.643 39.9935 312.926 39.04C313.219 38.0771 313.63 37.2511 314.158 36.562C314.696 35.8729 315.348 35.3395 316.112 34.9619C316.877 34.5843 317.741 34.3955 318.704 34.3955C319.723 34.3955 320.577 34.5843 321.267 34.9619C321.956 35.3395 322.522 35.8776 322.966 36.5762C323.41 37.2653 323.754 38.0819 324 39.0259C324.254 39.9604 324.453 40.9847 324.594 42.0986V42.75C324.453 43.8167 324.24 44.8079 323.957 45.7236C323.674 46.6393 323.301 47.4417 322.838 48.1309C322.376 48.8105 321.8 49.3392 321.111 49.7168C320.431 50.0944 319.619 50.2832 318.675 50.2832C317.731 50.2832 316.877 50.0897 316.112 49.7026C315.357 49.3156 314.71 48.7728 314.172 48.0742C313.634 47.3757 313.219 46.5544 312.926 45.6104C312.643 44.6663 312.501 43.6374 312.501 42.5234ZM316.58 42.2261V42.5234C316.58 43.1559 316.641 43.7459 316.764 44.2935C316.886 44.841 317.075 45.3271 317.33 45.752C317.594 46.1673 317.92 46.493 318.307 46.729C318.704 46.9556 319.171 47.0688 319.709 47.0688C320.455 47.0688 321.064 46.9131 321.536 46.6016C322.008 46.2806 322.362 45.8416 322.598 45.2847C322.834 44.7277 322.971 44.0858 323.008 43.3589V41.5039C322.989 40.9092 322.909 40.3758 322.768 39.9038C322.626 39.4224 322.428 39.0117 322.173 38.6719C321.918 38.332 321.588 38.0677 321.182 37.8789C320.776 37.6901 320.294 37.5957 319.737 37.5957C319.199 37.5957 318.732 37.7184 318.335 37.9639C317.948 38.1999 317.623 38.5256 317.358 38.9409C317.104 39.3563 316.91 39.8472 316.778 40.4136C316.646 40.9705 316.58 41.5747 316.58 42.2261ZM333.982 28.25V50H329.89V28.25H333.982ZM344.404 50.2832C343.215 50.2832 342.148 50.0944 341.204 49.7168C340.26 49.3298 339.458 48.7964 338.797 48.1167C338.146 47.437 337.645 46.6488 337.296 45.752C336.947 44.8457 336.772 43.8828 336.772 42.8633V42.2969C336.772 41.1357 336.937 40.0737 337.268 39.1108C337.598 38.1479 338.07 37.3125 338.684 36.6045C339.307 35.8965 340.062 35.3537 340.949 34.9761C341.837 34.589 342.837 34.3955 343.951 34.3955C345.037 34.3955 346 34.5749 346.84 34.9336C347.68 35.2923 348.383 35.8021 348.95 36.4629C349.526 37.1237 349.96 37.9167 350.252 38.8418C350.545 39.7575 350.691 40.777 350.691 41.9004V43.5996H338.514V40.8809H346.684V40.5693C346.684 40.0029 346.58 39.4979 346.373 39.0542C346.174 38.6011 345.872 38.2424 345.466 37.978C345.06 37.7137 344.541 37.5815 343.909 37.5815C343.371 37.5815 342.908 37.6995 342.521 37.9355C342.134 38.1715 341.818 38.502 341.572 38.9268C341.336 39.3516 341.157 39.8519 341.034 40.4277C340.921 40.9941 340.864 41.6172 340.864 42.2969V42.8633C340.864 43.4769 340.949 44.0433 341.119 44.5625C341.299 45.0817 341.549 45.5301 341.87 45.9077C342.2 46.2853 342.597 46.578 343.059 46.7856C343.531 46.9933 344.064 47.0972 344.659 47.0972C345.396 47.0972 346.08 46.9556 346.712 46.6724C347.354 46.3797 347.907 45.9408 348.369 45.3555L350.352 47.5078C350.031 47.9704 349.592 48.4141 349.035 48.8389C348.487 49.2637 347.826 49.613 347.052 49.8867C346.278 50.151 345.396 50.2832 344.404 50.2832Z" fill="white"/>
<path d="M57.669 36.6704H56.2997V36.5999H40.9998V43.3998H50.6073C49.2056 47.3582 45.4393 50.1997 40.9998 50.1997C35.3669 50.1997 30.7999 45.6327 30.7999 39.9998C30.7999 34.3669 35.3669 29.7999 40.9998 29.7999C43.5999 29.7999 45.9655 30.7808 47.7666 32.383L52.575 27.5747C49.5388 24.745 45.4776 23 40.9998 23C31.6117 23 24 30.6117 24 39.9998C24 49.388 31.6117 56.9996 40.9998 56.9996C50.388 56.9996 57.9996 49.388 57.9996 39.9998C57.9996 38.86 57.8823 37.7473 57.669 36.6704Z" fill="#FFC107"/>
<path d="M25.9601 32.0873L31.5454 36.1834C33.0567 32.4417 36.7167 29.7999 40.9999 29.7999C43.6 29.7999 45.9655 30.7808 47.7666 32.383L52.575 27.5747C49.5389 24.745 45.4776 23 40.9999 23C34.4702 23 28.8076 26.6864 25.9601 32.0873Z" fill="#FF3D00"/>
<path d="M40.9998 56.9998C45.3909 56.9998 49.3807 55.3193 52.3973 52.5866L47.1359 48.1343C45.4291 49.4272 43.3075 50.1998 40.9998 50.1998C36.5782 50.1998 32.8237 47.3804 31.4094 43.4458L25.8657 47.717C28.6792 53.2224 34.3928 56.9998 40.9998 56.9998Z" fill="#4CAF50"/>
<path d="M57.669 36.6702H56.2997V36.5996H40.9998V43.3995H50.6073C49.9341 45.301 48.7109 46.9406 47.1334 48.1348C47.1342 48.134 47.1351 48.134 47.1359 48.1331L52.3973 52.5854C52.025 52.9237 57.9996 48.4995 57.9996 39.9996C57.9996 38.8597 57.8823 37.7471 57.669 36.6702Z" fill="#1976D2"/>
</svg>
