<svg width="400" height="80" viewBox="0 0 400 80" fill="none" xmlns="http://www.w3.org/2000/svg">
<rect width="400" height="80" rx="5" fill="#3367D6"/>
<rect x="2" y="2" width="77" height="76" rx="2" fill="white"/>
<path d="M107.574 46.605C107.574 46.2368 107.518 45.9064 107.404 45.6138C107.3 45.3117 107.102 45.0379 106.81 44.7925C106.517 44.5376 106.106 44.2874 105.578 44.042C105.049 43.7965 104.365 43.5417 103.524 43.2773C102.59 42.9753 101.702 42.6354 100.862 42.2578C100.032 41.8802 99.2952 41.4412 98.6533 40.9409C98.0208 40.4312 97.5205 39.8411 97.1523 39.1709C96.7936 38.5007 96.6143 37.7218 96.6143 36.8345C96.6143 35.9754 96.8031 35.1966 97.1807 34.498C97.5583 33.79 98.0869 33.1859 98.7666 32.6855C99.4463 32.1758 100.249 31.784 101.174 31.5103C102.108 31.2365 103.133 31.0996 104.247 31.0996C105.766 31.0996 107.093 31.3734 108.226 31.9209C109.358 32.4684 110.236 33.2189 110.859 34.1724C111.492 35.1258 111.808 36.2161 111.808 37.4434H107.588C107.588 36.8392 107.461 36.3105 107.206 35.8574C106.961 35.3949 106.583 35.0314 106.073 34.7671C105.573 34.5028 104.94 34.3706 104.176 34.3706C103.439 34.3706 102.826 34.4839 102.335 34.7104C101.844 34.9276 101.476 35.2249 101.23 35.6025C100.985 35.9707 100.862 36.3861 100.862 36.8486C100.862 37.1979 100.947 37.5142 101.117 37.7974C101.297 38.0806 101.561 38.3449 101.91 38.5903C102.259 38.8358 102.689 39.0671 103.199 39.2842C103.708 39.5013 104.299 39.7137 104.969 39.9214C106.092 40.2612 107.079 40.6436 107.928 41.0684C108.787 41.4932 109.505 41.9699 110.081 42.4985C110.656 43.0272 111.091 43.6266 111.383 44.2969C111.676 44.9671 111.822 45.7271 111.822 46.5767C111.822 47.4735 111.648 48.2759 111.298 48.9839C110.949 49.6919 110.444 50.2913 109.783 50.7822C109.122 51.2731 108.334 51.646 107.418 51.9009C106.503 52.1558 105.479 52.2832 104.346 52.2832C103.326 52.2832 102.321 52.151 101.33 51.8867C100.338 51.613 99.4368 51.2023 98.625 50.6548C97.8226 50.1073 97.1807 49.4087 96.6992 48.5591C96.2178 47.7095 95.9771 46.7041 95.9771 45.543H100.239C100.239 46.1849 100.338 46.7277 100.537 47.1714C100.735 47.6151 101.013 47.9738 101.372 48.2476C101.74 48.5213 102.174 48.7196 102.675 48.8423C103.185 48.965 103.742 49.0264 104.346 49.0264C105.082 49.0264 105.686 48.9225 106.158 48.7148C106.64 48.5072 106.994 48.2192 107.22 47.8511C107.456 47.4829 107.574 47.0675 107.574 46.605ZM118.761 36.6787V52H114.668V36.6787H118.761ZM114.414 32.6855C114.414 32.0908 114.621 31.5999 115.037 31.2129C115.452 30.8258 116.009 30.6323 116.708 30.6323C117.397 30.6323 117.949 30.8258 118.364 31.2129C118.789 31.5999 119.001 32.0908 119.001 32.6855C119.001 33.2803 118.789 33.7712 118.364 34.1582C117.949 34.5452 117.397 34.7388 116.708 34.7388C116.009 34.7388 115.452 34.5452 115.037 34.1582C114.621 33.7712 114.414 33.2803 114.414 32.6855ZM131.831 36.6787H135.526V51.4902C135.526 52.8874 135.215 54.0721 134.592 55.0444C133.978 56.0262 133.119 56.7673 132.015 57.2676C130.91 57.7773 129.626 58.0322 128.163 58.0322C127.521 58.0322 126.841 57.9473 126.124 57.7773C125.416 57.6074 124.736 57.3431 124.085 56.9844C123.443 56.6257 122.905 56.1725 122.471 55.625L124.269 53.2178C124.741 53.7653 125.289 54.1901 125.912 54.4922C126.535 54.8037 127.224 54.9595 127.979 54.9595C128.715 54.9595 129.338 54.8226 129.848 54.5488C130.358 54.2845 130.75 53.8927 131.023 53.3735C131.297 52.8638 131.434 52.2454 131.434 51.5186V40.2188L131.831 36.6787ZM121.522 44.5234V44.2261C121.522 43.0555 121.664 41.9935 121.947 41.04C122.239 40.0771 122.65 39.2511 123.179 38.562C123.717 37.8729 124.368 37.3395 125.133 36.9619C125.897 36.5843 126.761 36.3955 127.724 36.3955C128.744 36.3955 129.598 36.5843 130.287 36.9619C130.976 37.3395 131.543 37.8776 131.986 38.5762C132.43 39.2653 132.775 40.0819 133.02 41.0259C133.275 41.9604 133.473 42.9847 133.615 44.0986V44.75C133.473 45.8167 133.261 46.8079 132.978 47.7236C132.694 48.6393 132.321 49.4417 131.859 50.1309C131.396 50.8105 130.82 51.3392 130.131 51.7168C129.452 52.0944 128.64 52.2832 127.696 52.2832C126.752 52.2832 125.897 52.0897 125.133 51.7026C124.378 51.3156 123.731 50.7728 123.193 50.0742C122.655 49.3757 122.239 48.5544 121.947 47.6104C121.664 46.6663 121.522 45.6374 121.522 44.5234ZM125.6 44.2261V44.5234C125.6 45.1559 125.661 45.7459 125.784 46.2935C125.907 46.841 126.096 47.3271 126.351 47.752C126.615 48.1673 126.941 48.493 127.328 48.729C127.724 48.9556 128.191 49.0688 128.729 49.0688C129.475 49.0688 130.084 48.9131 130.556 48.6016C131.028 48.2806 131.382 47.8416 131.618 47.2847C131.854 46.7277 131.991 46.0858 132.029 45.3589V43.5039C132.01 42.9092 131.93 42.3758 131.788 41.9038C131.646 41.4224 131.448 41.0117 131.193 40.6719C130.938 40.332 130.608 40.0677 130.202 39.8789C129.796 39.6901 129.315 39.5957 128.758 39.5957C128.22 39.5957 127.752 39.7184 127.356 39.9639C126.969 40.1999 126.643 40.5256 126.379 40.9409C126.124 41.3563 125.931 41.8472 125.798 42.4136C125.666 42.9705 125.6 43.5747 125.6 44.2261ZM142.691 39.9497V52H138.613V36.6787H142.437L142.691 39.9497ZM142.097 43.8013H140.992C140.992 42.6685 141.139 41.6489 141.431 40.7427C141.724 39.827 142.134 39.0482 142.663 38.4062C143.192 37.7549 143.819 37.2593 144.546 36.9194C145.283 36.5701 146.104 36.3955 147.01 36.3955C147.728 36.3955 148.384 36.4993 148.979 36.707C149.573 36.9147 150.083 37.2451 150.508 37.6982C150.942 38.1514 151.272 38.7508 151.499 39.4966C151.735 40.2424 151.853 41.1533 151.853 42.2295V52H147.747V42.2153C147.747 41.5356 147.652 41.007 147.463 40.6294C147.275 40.2518 146.996 39.9875 146.628 39.8364C146.269 39.6759 145.826 39.5957 145.297 39.5957C144.749 39.5957 144.273 39.7043 143.867 39.9214C143.47 40.1385 143.14 40.4406 142.875 40.8276C142.621 41.2052 142.427 41.6489 142.295 42.1587C142.163 42.6685 142.097 43.216 142.097 43.8013ZM166.48 36.6787V52H162.388V36.6787H166.48ZM162.133 32.6855C162.133 32.0908 162.341 31.5999 162.756 31.2129C163.172 30.8258 163.729 30.6323 164.427 30.6323C165.116 30.6323 165.669 30.8258 166.084 31.2129C166.509 31.5999 166.721 32.0908 166.721 32.6855C166.721 33.2803 166.509 33.7712 166.084 34.1582C165.669 34.5452 165.116 34.7388 164.427 34.7388C163.729 34.7388 163.172 34.5452 162.756 34.1582C162.341 33.7712 162.133 33.2803 162.133 32.6855ZM173.844 39.9497V52H169.766V36.6787H173.589L173.844 39.9497ZM173.249 43.8013H172.145C172.145 42.6685 172.291 41.6489 172.583 40.7427C172.876 39.827 173.287 39.0482 173.815 38.4062C174.344 37.7549 174.972 37.2593 175.699 36.9194C176.435 36.5701 177.256 36.3955 178.163 36.3955C178.88 36.3955 179.536 36.4993 180.131 36.707C180.726 36.9147 181.235 37.2451 181.66 37.6982C182.094 38.1514 182.425 38.7508 182.651 39.4966C182.887 40.2424 183.005 41.1533 183.005 42.2295V52H178.899V42.2153C178.899 41.5356 178.805 41.007 178.616 40.6294C178.427 40.2518 178.148 39.9875 177.78 39.8364C177.422 39.6759 176.978 39.5957 176.449 39.5957C175.902 39.5957 175.425 39.7043 175.019 39.9214C174.623 40.1385 174.292 40.4406 174.028 40.8276C173.773 41.2052 173.579 41.6489 173.447 42.1587C173.315 42.6685 173.249 43.216 173.249 43.8013ZM197.704 48.0352L200.89 36.6787H203.481L202.646 41.1392L199.459 52H197.293L197.704 48.0352ZM196.089 36.6787L198.369 48.021L198.582 52H196.033L192.153 36.6787H196.089ZM206.398 47.8369L208.621 36.6787H212.572L208.692 52H206.157L206.398 47.8369ZM203.835 36.6787L207.007 47.9502L207.446 52H205.265L202.079 41.1533L201.272 36.6787H203.835ZM218.93 36.6787V52H214.837V36.6787H218.93ZM214.583 32.6855C214.583 32.0908 214.79 31.5999 215.206 31.2129C215.621 30.8258 216.178 30.6323 216.876 30.6323C217.566 30.6323 218.118 30.8258 218.533 31.2129C218.958 31.5999 219.17 32.0908 219.17 32.6855C219.17 33.2803 218.958 33.7712 218.533 34.1582C218.118 34.5452 217.566 34.7388 216.876 34.7388C216.178 34.7388 215.621 34.5452 215.206 34.1582C214.79 33.7712 214.583 33.2803 214.583 32.6855ZM229.805 36.6787V39.5674H220.884V36.6787H229.805ZM223.093 32.8979H227.171V47.3838C227.171 47.8275 227.228 48.1673 227.341 48.4033C227.464 48.6393 227.643 48.8045 227.879 48.8989C228.115 48.9839 228.412 49.0264 228.771 49.0264C229.026 49.0264 229.252 49.0169 229.451 48.998C229.658 48.9697 229.833 48.9414 229.975 48.9131L229.989 51.915C229.639 52.0283 229.262 52.118 228.856 52.1841C228.45 52.2502 228.002 52.2832 227.511 52.2832C226.614 52.2832 225.83 52.1369 225.16 51.8442C224.499 51.5422 223.99 51.0607 223.631 50.3999C223.272 49.7391 223.093 48.8706 223.093 47.7944V32.8979ZM236.106 30.25V52H232.028V30.25H236.106ZM235.525 43.8013H234.407C234.416 42.7345 234.558 41.7528 234.832 40.856C235.105 39.9497 235.497 39.1662 236.007 38.5054C236.517 37.8351 237.125 37.3159 237.833 36.9478C238.551 36.5796 239.344 36.3955 240.212 36.3955C240.968 36.3955 241.652 36.5041 242.266 36.7212C242.889 36.9289 243.422 37.2687 243.866 37.7407C244.319 38.2033 244.668 38.8122 244.914 39.5674C245.159 40.3226 245.282 41.2383 245.282 42.3145V52H241.175V42.2861C241.175 41.6064 241.076 41.0731 240.878 40.686C240.689 40.2896 240.411 40.0111 240.042 39.8506C239.684 39.6807 239.24 39.5957 238.711 39.5957C238.126 39.5957 237.626 39.7043 237.21 39.9214C236.805 40.1385 236.479 40.4406 236.233 40.8276C235.988 41.2052 235.809 41.6489 235.695 42.1587C235.582 42.6685 235.525 43.216 235.525 43.8013ZM257.799 31.3828H261.396L266.692 46.52L271.988 31.3828H275.584L268.136 52H265.248L257.799 31.3828ZM255.859 31.3828H259.442L260.093 46.1377V52H255.859V31.3828ZM273.942 31.3828H277.539V52H273.291V46.1377L273.942 31.3828ZM285.312 36.6787V52H281.22V36.6787H285.312ZM280.965 32.6855C280.965 32.0908 281.173 31.5999 281.588 31.2129C282.004 30.8258 282.561 30.6323 283.259 30.6323C283.948 30.6323 284.501 30.8258 284.916 31.2129C285.341 31.5999 285.553 32.0908 285.553 32.6855C285.553 33.2803 285.341 33.7712 284.916 34.1582C284.501 34.5452 283.948 34.7388 283.259 34.7388C282.561 34.7388 282.004 34.5452 281.588 34.1582C281.173 33.7712 280.965 33.2803 280.965 32.6855ZM295.012 49.0972C295.513 49.0972 295.956 49.0028 296.343 48.814C296.73 48.6157 297.032 48.342 297.25 47.9927C297.476 47.634 297.594 47.2139 297.604 46.7324H301.441C301.431 47.8086 301.144 48.7668 300.577 49.6069C300.011 50.4377 299.251 51.0938 298.297 51.5752C297.344 52.0472 296.277 52.2832 295.097 52.2832C293.908 52.2832 292.869 52.085 291.982 51.6885C291.104 51.292 290.372 50.7445 289.787 50.0459C289.202 49.3379 288.763 48.5166 288.47 47.582C288.178 46.638 288.031 45.6279 288.031 44.5518V44.1411C288.031 43.0555 288.178 42.0454 288.47 41.1108C288.763 40.1668 289.202 39.3455 289.787 38.647C290.372 37.939 291.104 37.3867 291.982 36.9902C292.86 36.5938 293.889 36.3955 295.069 36.3955C296.324 36.3955 297.424 36.6362 298.368 37.1177C299.322 37.5991 300.067 38.2882 300.605 39.1851C301.153 40.0724 301.431 41.125 301.441 42.3428H297.604C297.594 41.833 297.486 41.3704 297.278 40.9551C297.08 40.5397 296.787 40.2093 296.4 39.9639C296.022 39.709 295.555 39.5815 294.998 39.5815C294.403 39.5815 293.917 39.709 293.54 39.9639C293.162 40.2093 292.869 40.5492 292.662 40.9834C292.454 41.4082 292.308 41.8944 292.223 42.4419C292.147 42.98 292.109 43.5464 292.109 44.1411V44.5518C292.109 45.1465 292.147 45.7176 292.223 46.2651C292.298 46.8127 292.44 47.2988 292.647 47.7236C292.865 48.1484 293.162 48.4836 293.54 48.729C293.917 48.9744 294.408 49.0972 295.012 49.0972ZM307.884 40.0205V52H303.806V36.6787H307.643L307.884 40.0205ZM312.5 36.5796L312.429 40.3604C312.231 40.332 311.99 40.3084 311.707 40.2896C311.433 40.2612 311.183 40.2471 310.957 40.2471C310.381 40.2471 309.88 40.3226 309.456 40.4736C309.04 40.6152 308.691 40.8276 308.408 41.1108C308.134 41.394 307.926 41.7386 307.785 42.1445C307.653 42.5505 307.577 43.013 307.558 43.5322L306.737 43.2773C306.737 42.2861 306.836 41.3752 307.034 40.5444C307.232 39.7043 307.52 38.9727 307.898 38.3496C308.285 37.7266 308.757 37.2451 309.314 36.9053C309.871 36.5654 310.508 36.3955 311.226 36.3955C311.452 36.3955 311.683 36.4144 311.919 36.4521C312.155 36.4805 312.349 36.5229 312.5 36.5796ZM313.35 44.4951V44.1978C313.35 43.0744 313.51 42.0407 313.831 41.0967C314.152 40.1432 314.619 39.3172 315.233 38.6187C315.847 37.9201 316.602 37.3773 317.499 36.9902C318.395 36.5938 319.424 36.3955 320.585 36.3955C321.747 36.3955 322.78 36.5938 323.687 36.9902C324.593 37.3773 325.353 37.9201 325.966 38.6187C326.589 39.3172 327.061 40.1432 327.382 41.0967C327.703 42.0407 327.864 43.0744 327.864 44.1978V44.4951C327.864 45.609 327.703 46.6427 327.382 47.5962C327.061 48.5402 326.589 49.3662 325.966 50.0742C325.353 50.7728 324.597 51.3156 323.701 51.7026C322.804 52.0897 321.775 52.2832 320.614 52.2832C319.453 52.2832 318.419 52.0897 317.513 51.7026C316.616 51.3156 315.856 50.7728 315.233 50.0742C314.619 49.3662 314.152 48.5402 313.831 47.5962C313.51 46.6427 313.35 45.609 313.35 44.4951ZM317.428 44.1978V44.4951C317.428 45.137 317.484 45.7365 317.598 46.2935C317.711 46.8504 317.89 47.3413 318.136 47.7661C318.391 48.1815 318.721 48.5072 319.127 48.7432C319.533 48.9792 320.028 49.0972 320.614 49.0972C321.18 49.0972 321.666 48.9792 322.072 48.7432C322.478 48.5072 322.804 48.1815 323.049 47.7661C323.295 47.3413 323.474 46.8504 323.587 46.2935C323.71 45.7365 323.771 45.137 323.771 44.4951V44.1978C323.771 43.5747 323.71 42.9894 323.587 42.4419C323.474 41.8849 323.29 41.394 323.035 40.9692C322.79 40.535 322.464 40.1951 322.058 39.9497C321.652 39.7043 321.161 39.5815 320.585 39.5815C320.01 39.5815 319.519 39.7043 319.113 39.9497C318.716 40.1951 318.391 40.535 318.136 40.9692C317.89 41.394 317.711 41.8849 317.598 42.4419C317.484 42.9894 317.428 43.5747 317.428 44.1978ZM338.654 47.7661C338.654 47.4735 338.569 47.2091 338.399 46.9731C338.229 46.7371 337.913 46.52 337.45 46.3218C336.997 46.1141 336.341 45.9253 335.482 45.7554C334.708 45.5854 333.986 45.373 333.315 45.1182C332.655 44.8538 332.079 44.5376 331.588 44.1694C331.106 43.8013 330.729 43.367 330.455 42.8667C330.181 42.3569 330.044 41.7764 330.044 41.125C330.044 40.4831 330.181 39.8789 330.455 39.3125C330.738 38.7461 331.139 38.2458 331.659 37.8115C332.187 37.3678 332.829 37.0233 333.584 36.7778C334.349 36.5229 335.208 36.3955 336.162 36.3955C337.493 36.3955 338.635 36.6079 339.588 37.0327C340.551 37.4575 341.288 38.0428 341.797 38.7886C342.317 39.5249 342.576 40.3651 342.576 41.3091H338.498C338.498 40.9126 338.413 40.5586 338.243 40.2471C338.083 39.9261 337.828 39.6759 337.479 39.4966C337.139 39.3078 336.695 39.2134 336.147 39.2134C335.694 39.2134 335.303 39.2936 334.972 39.4541C334.642 39.6051 334.387 39.8128 334.208 40.0771C334.038 40.332 333.953 40.6152 333.953 40.9268C333.953 41.1628 334 41.3752 334.094 41.564C334.198 41.7433 334.363 41.9085 334.59 42.0596C334.816 42.2106 335.109 42.3522 335.468 42.4844C335.836 42.6071 336.289 42.7204 336.827 42.8242C337.932 43.0508 338.918 43.3481 339.787 43.7163C340.655 44.075 341.344 44.5659 341.854 45.189C342.364 45.8026 342.619 46.6097 342.619 47.6104C342.619 48.29 342.468 48.9131 342.166 49.4795C341.863 50.0459 341.429 50.5415 340.863 50.9663C340.296 51.3817 339.617 51.7074 338.824 51.9434C338.04 52.1699 337.158 52.2832 336.176 52.2832C334.75 52.2832 333.542 52.0283 332.551 51.5186C331.569 51.0088 330.823 50.3621 330.313 49.5786C329.813 48.7856 329.563 47.9738 329.563 47.1431H333.429C333.448 47.7 333.589 48.1484 333.854 48.4883C334.127 48.8281 334.472 49.0736 334.887 49.2246C335.312 49.3757 335.77 49.4512 336.261 49.4512C336.789 49.4512 337.228 49.3804 337.578 49.2388C337.927 49.0877 338.191 48.8895 338.371 48.644C338.559 48.3892 338.654 48.0965 338.654 47.7661ZM344.615 44.4951V44.1978C344.615 43.0744 344.776 42.0407 345.097 41.0967C345.418 40.1432 345.885 39.3172 346.499 38.6187C347.112 37.9201 347.867 37.3773 348.764 36.9902C349.661 36.5938 350.69 36.3955 351.851 36.3955C353.012 36.3955 354.046 36.5938 354.952 36.9902C355.858 37.3773 356.618 37.9201 357.232 38.6187C357.855 39.3172 358.327 40.1432 358.648 41.0967C358.969 42.0407 359.129 43.0744 359.129 44.1978V44.4951C359.129 45.609 358.969 46.6427 358.648 47.5962C358.327 48.5402 357.855 49.3662 357.232 50.0742C356.618 50.7728 355.863 51.3156 354.966 51.7026C354.069 52.0897 353.041 52.2832 351.879 52.2832C350.718 52.2832 349.685 52.0897 348.778 51.7026C347.882 51.3156 347.122 50.7728 346.499 50.0742C345.885 49.3662 345.418 48.5402 345.097 47.5962C344.776 46.6427 344.615 45.609 344.615 44.4951ZM348.693 44.1978V44.4951C348.693 45.137 348.75 45.7365 348.863 46.2935C348.977 46.8504 349.156 47.3413 349.401 47.7661C349.656 48.1815 349.987 48.5072 350.393 48.7432C350.799 48.9792 351.294 49.0972 351.879 49.0972C352.446 49.0972 352.932 48.9792 353.338 48.7432C353.744 48.5072 354.069 48.1815 354.315 47.7661C354.56 47.3413 354.74 46.8504 354.853 46.2935C354.976 45.7365 355.037 45.137 355.037 44.4951V44.1978C355.037 43.5747 354.976 42.9894 354.853 42.4419C354.74 41.8849 354.556 41.394 354.301 40.9692C354.055 40.535 353.73 40.1951 353.324 39.9497C352.918 39.7043 352.427 39.5815 351.851 39.5815C351.275 39.5815 350.784 39.7043 350.378 39.9497C349.982 40.1951 349.656 40.535 349.401 40.9692C349.156 41.394 348.977 41.8849 348.863 42.4419C348.75 42.9894 348.693 43.5747 348.693 44.1978ZM366.833 52H362.726V35.3193C362.726 34.1582 362.953 33.1812 363.406 32.3882C363.868 31.5858 364.515 30.9816 365.346 30.5757C366.186 30.1603 367.182 29.9526 368.333 29.9526C368.711 29.9526 369.075 29.981 369.424 30.0376C369.773 30.0848 370.113 30.1462 370.443 30.2217L370.401 33.2944C370.222 33.2472 370.033 33.2142 369.834 33.1953C369.636 33.1764 369.405 33.167 369.141 33.167C368.65 33.167 368.23 33.252 367.88 33.4219C367.541 33.5824 367.281 33.8231 367.102 34.144C366.922 34.465 366.833 34.8568 366.833 35.3193V52ZM369.891 36.6787V39.5674H360.446V36.6787H369.891ZM379.534 36.6787V39.5674H370.613V36.6787H379.534ZM372.822 32.8979H376.9V47.3838C376.9 47.8275 376.957 48.1673 377.07 48.4033C377.193 48.6393 377.372 48.8045 377.608 48.8989C377.844 48.9839 378.142 49.0264 378.5 49.0264C378.755 49.0264 378.982 49.0169 379.18 48.998C379.388 48.9697 379.562 48.9414 379.704 48.9131L379.718 51.915C379.369 52.0283 378.991 52.118 378.585 52.1841C378.18 52.2502 377.731 52.2832 377.24 52.2832C376.343 52.2832 375.56 52.1369 374.89 51.8442C374.229 51.5422 373.719 51.0607 373.36 50.3999C373.002 49.7391 372.822 48.8706 372.822 47.7944V32.8979Z" fill="white"/>
<path d="M39.1111 38.1113H24V23.0002H39.1111V38.1113Z" fill="#FF5722"/>
<path d="M58 38.1113H42.8889V23.0002H58V38.1113Z" fill="#4CAF50"/>
<path d="M58 57H42.8889V41.8889H58V57Z" fill="#FFC107"/>
<path d="M39.1111 57H24V41.8889H39.1111V57Z" fill="#03A9F4"/>
</svg>
