<svg xmlns="http://www.w3.org/2000/svg" xmlns:xlink="http://www.w3.org/1999/xlink" width="152.8" height="30.8" viewBox="0 0 152.8 30.8">
  <defs>
    <linearGradient id="linear-gradient" x1="0.681" y1="6.96" x2="0.225" y2="6.306" gradientUnits="objectBoundingBox">
      <stop offset="0" stop-color="#92278f"/>
      <stop offset="1" stop-color="#485fab"/>
    </linearGradient>
  </defs>
  <g id="logofull" transform="translate(-21.7 -18.3)">
    <rect id="Rectangle_1550" data-name="Rectangle 1550" width="52.6" height="18.9" transform="translate(121.9 18.3)" fill="#ed1c24"/>
    <g id="Group_883" data-name="Group 883">
      <path id="Path_1635" data-name="Path 1635" d="M134.2,31.5h4.7v.9h-5.7V22.3h1Z" fill="#fff"/>
      <path id="Path_1636" data-name="Path 1636" d="M141.5,32.4h-1V22.3h1Z" fill="#fff"/>
      <path id="Path_1637" data-name="Path 1637" d="M147.2,31.1h0l3.3-8.8h1.1l-3.9,10.1h-1.1l-3.9-10.1h1.1Z" fill="#fff"/>
      <path id="Path_1638" data-name="Path 1638" d="M154.1,31.5h5.4v.9H153V22.3h6.3v.9h-5.2v3.5H159v.9h-4.9Z" fill="#fff"/>
    </g>
    <g id="Group_884" data-name="Group 884">
      <path id="Path_1639" data-name="Path 1639" d="M30,48.3h2.6v.5H29.4V43.1H30Z" fill="#fff"/>
      <path id="Path_1640" data-name="Path 1640" d="M34.6,48.3h3v.5H34V43.1h3.5v.5H34.6v2h2.7v.5H34.6Z" fill="#fff"/>
      <path id="Path_1641" data-name="Path 1641" d="M39.1,48.9h-.6l2.4-5.7h.6l2.4,5.7h-.6l-.6-1.5H39.8Zm.9-2.1h2.5l-1.2-3Z" fill="#fff"/>
      <path id="Path_1642" data-name="Path 1642" d="M45.8,48.9h-.6V43.2h1.7c1.1,0,1.9.4,1.9,1.5a1.52,1.52,0,0,1-1.4,1.5l1.7,2.7h-.7l-1.6-2.6h-1S45.8,48.9,45.8,48.9Zm0-3.2h1c.9,0,1.4-.3,1.4-1s-.6-1-1.4-1h-1Z" fill="#fff"/>
      <path id="Path_1643" data-name="Path 1643" d="M54.5,48h0V43.2h.6v5.7h-.7L51.1,44h0v4.9h-.6V43.2h.7Z" fill="#fff"/>
      <path id="Path_1644" data-name="Path 1644" d="M57.6,48.9H57V43.2h.6Z" fill="#fff"/>
      <path id="Path_1645" data-name="Path 1645" d="M63.6,48h0V43.2h.6v5.7h-.7L60.1,44h0v4.9h-.6V43.2h.7Z" fill="#fff"/>
      <path id="Path_1646" data-name="Path 1646" d="M70.4,44.2a2.175,2.175,0,0,0-1.6-.7,2.5,2.5,0,0,0,0,5,2.982,2.982,0,0,0,1.5-.4V46.4H69v-.5h1.9v2.6a3.7,3.7,0,0,1-2.1.6,3,3,0,0,1,0-6,2.481,2.481,0,0,1,2,.8Z" fill="#fff"/>
      <path id="Path_1647" data-name="Path 1647" d="M75.1,48.9h-.6l2.4-5.7h.6l2.4,5.7h-.6l-.6-1.5H75.8Zm.8-2.1h2.5l-1.2-3Z" fill="#fff"/>
      <path id="Path_1648" data-name="Path 1648" d="M85.2,48h0V43.2h.6v5.7H85L81.7,44h0v4.9h-.6V43.2h.7Z" fill="#fff"/>
      <path id="Path_1649" data-name="Path 1649" d="M87.7,48.9H87l2.4-5.7H90l2.4,5.7h-.6l-.6-1.5H88.3Zm.8-2.1H91l-1.2-3Z" fill="#fff"/>
      <path id="Path_1650" data-name="Path 1650" d="M94.3,48.3H97v.5H93.8V43.1h.6l-.1,5.2Z" fill="#fff"/>
      <path id="Path_1651" data-name="Path 1651" d="M99.5,48.9h-.6V46.5l-2.1-3.2h.7L99.2,46l1.7-2.7h.7l-2.1,3.2S99.5,48.9,99.5,48.9Z" fill="#fff"/>
      <path id="Path_1652" data-name="Path 1652" d="M104.6,48.9H104V43.8h-1.9v-.5h4.4v.5h-1.9Z" fill="#fff"/>
      <path id="Path_1653" data-name="Path 1653" d="M108.4,48.9h-.6V43.2h.6Z" fill="#fff"/>
      <path id="Path_1654" data-name="Path 1654" d="M115.1,47.9A2.452,2.452,0,0,1,113,49a3,3,0,0,1,0-6,2.384,2.384,0,0,1,2,.9l-.5.4a1.676,1.676,0,0,0-1.5-.7,2.5,2.5,0,0,0,0,5,2.289,2.289,0,0,0,1.7-.8Z" fill="#fff"/>
      <path id="Path_1655" data-name="Path 1655" d="M119.3,44.1a1.407,1.407,0,0,0-1.2-.6,1.073,1.073,0,0,0-1.2,1.1c0,.7.6.9,1.2,1.1.8.3,1.7.5,1.7,1.7A1.68,1.68,0,0,1,118,49a2.342,2.342,0,0,1-1.8-.8l.5-.4a1.435,1.435,0,0,0,1.3.7,1.221,1.221,0,0,0,1.3-1.1c0-.8-.7-1-1.4-1.2-.8-.2-1.5-.6-1.5-1.6a1.68,1.68,0,0,1,1.8-1.6,1.874,1.874,0,0,1,1.6.7Z" fill="#fff"/>
      <path id="Path_1656" data-name="Path 1656" d="M123.8,48.9h-.6l2.4-5.7h.6l2.4,5.7H128l-.6-1.5h-2.9Zm.8-2.1h2.5l-1.2-3Z" fill="#fff"/>
      <path id="Path_1657" data-name="Path 1657" d="M131.2,48.9h-.6V43.8h-1.9v-.5h4.4v.5h-1.9Z" fill="#fff"/>
      <path id="Path_1658" data-name="Path 1658" d="M139.4,44.1a1.407,1.407,0,0,0-1.2-.6,1.073,1.073,0,0,0-1.2,1.1c0,.7.6.9,1.2,1.1.8.3,1.7.5,1.7,1.7a1.68,1.68,0,0,1-1.8,1.6,2.342,2.342,0,0,1-1.8-.8l.5-.4a1.435,1.435,0,0,0,1.3.7,1.221,1.221,0,0,0,1.3-1.1c0-.8-.7-1-1.4-1.2-.8-.2-1.5-.6-1.5-1.6a1.68,1.68,0,0,1,1.8-1.6,1.874,1.874,0,0,1,1.6.7Z" fill="#fff"/>
      <path id="Path_1659" data-name="Path 1659" d="M146.4,47.9a2.452,2.452,0,0,1-2.1,1.1,3,3,0,0,1,0-6,2.384,2.384,0,0,1,2,.9l-.5.4a1.676,1.676,0,0,0-1.5-.7,2.5,2.5,0,0,0,0,5,2.289,2.289,0,0,0,1.7-.8Z" fill="#fff"/>
      <path id="Path_1660" data-name="Path 1660" d="M147.7,48.9h-.6l2.4-5.7h.6l2.4,5.7h-.6l-.6-1.5h-2.9Zm.8-2.1H151l-1.2-3Z" fill="#fff"/>
      <path id="Path_1661" data-name="Path 1661" d="M154.4,48.3H157v.5h-3.2V43.1h.6v5.2Z" fill="#fff"/>
      <path id="Path_1662" data-name="Path 1662" d="M158.9,48.3h3v.5h-3.6V43.1h3.5v.5h-2.9v2h2.7v.5h-2.7Z" fill="#fff"/>
    </g>
    <g id="Group_885" data-name="Group 885">
      <path id="Path_1663" data-name="Path 1663" d="M164.3,26.9h-.4V23h-1.4v-.4h3.3V23h-1.4v3.9Z" fill="#fff"/>
      <path id="Path_1664" data-name="Path 1664" d="M168.5,26.2h0l1.4-3.5h.7V27h-.4V23.3h0L168.7,27h-.2L167,23.3h0V27h-.4V22.7h.7Z" fill="#fff"/>
    </g>
    <circle id="Ellipse_389" data-name="Ellipse 389" cx="1.5" cy="1.5" r="1.5" transform="translate(126 26.7)" fill="#fff"/>
    <path id="Path_1665" data-name="Path 1665" d="M21.7,36.9l9.9-8.1L21.7,18.4Z" fill="url(#linear-gradient)"/>
    <path id="Path_1666" data-name="Path 1666" d="M32.1,28.8s9.4-10,9.7-10.2V37h-.6V23.2l-9.1,9.3Z" fill="#fff"/>
    <path id="Path_1667" data-name="Path 1667" d="M83.7,26.7v8.4L71,21.5V35.1H69.9V18.7s9.5,10,12.7,13.5V26.6h1.1Z" fill="#fff"/>
    <path id="Path_1668" data-name="Path 1668" d="M120.4,18.7v1h-6.7V35.1h-1.1V19.7h-6.7v-1Z" fill="#fff"/>
    <path id="Path_1669" data-name="Path 1669" d="M51.4,20.4a8.472,8.472,0,0,1,7.6,0,5.582,5.582,0,0,1,.8.5h0l.9-.7h0a4.129,4.129,0,0,0-1.1-.7,8.608,8.608,0,0,0-4.4-1,9.761,9.761,0,0,0-4.4,1,8.062,8.062,0,0,0-2.9,2.9,8.747,8.747,0,0,0-1,4.5,10.733,10.733,0,0,0,.6,3.5v.1l1-.7h0a8.423,8.423,0,0,1-.4-2.7,8.6,8.6,0,0,1,.9-3.9A4.777,4.777,0,0,1,51.4,20.4Z" fill="#fff"/>
    <path id="Path_1670" data-name="Path 1670" d="M62.9,23.7h0l-1,.7h0a10.074,10.074,0,0,1,.3,2.5,9.34,9.34,0,0,1-.9,4,5.712,5.712,0,0,1-2.5,2.6,8.472,8.472,0,0,1-7.6,0,2.092,2.092,0,0,1-.6-.4h0l-.9.7h.1l.9.6a8.386,8.386,0,0,0,4.4,1,9.761,9.761,0,0,0,4.4-1,8.062,8.062,0,0,0,2.9-2.9,9.883,9.883,0,0,0,1-4.5A9.123,9.123,0,0,0,62.9,23.7Z" fill="#fff"/>
    <path id="Path_1671" data-name="Path 1671" d="M102.8,34.1v1H90.2V26.7h9.9v1H91.3v6.4Z" fill="#fff"/>
    <rect id="Rectangle_1551" data-name="Rectangle 1551" width="12.7" height="1" transform="translate(90.2 18.7)" fill="#fff"/>
  </g>
</svg>
