<?xml version="1.0" encoding="utf-8"?>
<!-- Generator: Adobe Illustrator 21.0.0, SVG Export Plug-In . SVG Version: 6.00 Build 0)  -->
<svg version="1.1" id="Layer_1" xmlns="http://www.w3.org/2000/svg" xmlns:xlink="http://www.w3.org/1999/xlink" x="0px" y="0px"
	 viewBox="0 0 252 144" style="enable-background:new 0 0 252 144;" xml:space="preserve">
<style type="text/css">
	.st0{fill:url(#SVGID_1_);}
	.st1{fill:#FFFFFF;}
</style>
<g>
	<g>
		<g>
			<linearGradient id="SVGID_1_" gradientUnits="userSpaceOnUse" x1="53.5121" y1="70.9768" x2="45.6915" y2="49.9849">
				<stop  offset="0" style="stop-color:#92278F"/>
				<stop  offset="1" style="stop-color:#485FAB"/>
			</linearGradient>
			<path class="st0" d="M41.9,69.7c6-4.9,11.6-9.5,17.1-14c-5.7-6-11.4-12-17.1-18C41.9,48.3,41.9,58.8,41.9,69.7z"/>
			<path class="st1" d="M59.9,55.5c0,0,16.4-17.3,16.9-17.7c0,10.8,0,32.1,0,32.1h-1l0-23.9L59.9,62.1V55.5z"/>
		</g>
		<path class="st1" d="M149.3,51.9v14.6l-22-23.6l0,23.6h-1.8V38.1c0,0,16.5,17.3,21.9,23.5v-9.7H149.3z"/>
		<polygon class="st1" points="213,38.1 213,39.8 201.5,39.8 201.5,66.5 199.5,66.5 199.5,39.8 188,39.8 188,38.1 		"/>
		<g>
			<path class="st1" d="M93.3,41c1.9-1,4.1-1.6,6.6-1.6c2.5,0,4.7,0.5,6.6,1.6c0.5,0.3,1,0.6,1.4,0.9l0.1,0l1.5-1.2l-0.1-0.1
				c-0.6-0.5-1.2-0.9-1.9-1.3c-2.1-1.2-4.7-1.8-7.6-1.8c-2.9,0-5.5,0.6-7.6,1.8c-2.1,1.2-3.8,2.9-5,5.1c-1.2,2.2-1.8,4.8-1.8,7.7
				c0,2.2,0.3,4.2,1,6l0,0.1l1.7-1.3l0-0.1c-0.4-1.4-0.7-3-0.7-4.8c0-2.6,0.5-4.9,1.5-6.9C90,43.6,91.4,42.1,93.3,41z"/>
			<path class="st1" d="M113.4,46.8l0-0.1l-1.7,1.3l0,0.1c0.4,1.3,0.5,2.7,0.5,4.3c0,2.6-0.5,4.9-1.5,6.9c-1,1.9-2.4,3.4-4.3,4.5
				c-1.9,1-4.1,1.6-6.6,1.6c-2.5,0-4.7-0.5-6.6-1.6c-0.4-0.2-0.7-0.4-1-0.7l-0.1,0l-1.5,1.2l0.1,0.1c0.5,0.3,1,0.7,1.5,1
				c2.1,1.2,4.7,1.8,7.6,1.8c2.9,0,5.4-0.6,7.6-1.8c2.2-1.2,3.9-2.9,5-5.1c1.2-2.2,1.7-4.8,1.7-7.7
				C114.2,50.3,113.9,48.5,113.4,46.8z"/>
		</g>
		<polygon class="st1" points="182.6,64.8 182.6,66.5 160.7,66.5 160.7,51.9 177.8,51.9 177.8,53.7 162.6,53.7 162.6,64.8 		"/>
		<rect x="160.7" y="38.1" class="st1" width="21.9" height="1.7"/>
	</g>
	<g>
		<path class="st1" d="M50.8,93.4H40.4v9l12.9,0.1v1.6L38.6,104V81.9L53.2,82v1.6l-12.8-0.1v8.3h10.3V93.4z"/>
		<path class="st1" d="M58.4,104V81.9h6.2c1.4,0,2.6,0.2,3.8,0.7c1.2,0.5,2.2,1.2,3,2c0.8,0.9,1.5,1.9,1.9,3.2
			c0.5,1.2,0.7,2.6,0.7,4.1v2c0,1.5-0.2,2.9-0.7,4.1c-0.5,1.2-1.1,2.3-2,3.2c-0.8,0.9-1.8,1.6-3,2c-1.2,0.5-2.5,0.7-3.9,0.7H58.4z
			 M60.3,83.5v18.9h4.2c1.2,0,2.3-0.2,3.2-0.6c1-0.4,1.8-1,2.4-1.7c0.7-0.7,1.2-1.6,1.5-2.7c0.4-1,0.5-2.2,0.5-3.4v-2.1
			c0-1.3-0.2-2.4-0.5-3.5c-0.4-1-0.9-1.9-1.5-2.6c-0.7-0.7-1.5-1.3-2.4-1.7c-0.9-0.4-2-0.6-3.1-0.6H60.3z"/>
		<path class="st1" d="M96.2,81.9v15c0,1.2-0.2,2.3-0.6,3.3s-1,1.7-1.7,2.3c-0.7,0.6-1.5,1.1-2.5,1.4c-0.9,0.3-2,0.5-3,0.5
			c-1.1,0-2.1-0.2-3.1-0.5c-0.9-0.3-1.8-0.8-2.5-1.4c-0.7-0.6-1.2-1.4-1.6-2.3c-0.4-0.9-0.6-2-0.6-3.3v-15h1.9v15
			c0,1,0.1,1.8,0.4,2.5c0.3,0.7,0.7,1.3,1.2,1.8c0.5,0.5,1.2,0.9,1.9,1.1c0.7,0.2,1.5,0.4,2.4,0.4c0.9,0,1.7-0.1,2.4-0.4
			c0.7-0.2,1.3-0.6,1.9-1.1c0.5-0.5,0.9-1.1,1.2-1.8c0.3-0.7,0.4-1.6,0.4-2.5v-15H96.2z"/>
		<path class="st1" d="M119.2,97.1c-0.1,1.1-0.4,2.1-0.8,3c-0.4,0.9-0.9,1.6-1.6,2.3c-0.7,0.6-1.5,1.1-2.5,1.4c-1,0.3-2,0.5-3.3,0.5
			c-1.3,0-2.4-0.2-3.4-0.7c-1-0.5-1.9-1.2-2.6-2c-0.7-0.9-1.3-1.9-1.7-3.1c-0.4-1.2-0.6-2.6-0.6-4.1v-2.8c0-1.5,0.2-2.8,0.6-4.1
			c0.4-1.2,1-2.3,1.7-3.1c0.7-0.9,1.6-1.5,2.7-2c1-0.5,2.2-0.7,3.5-0.7c1.2,0,2.2,0.2,3.2,0.5c0.9,0.3,1.7,0.8,2.4,1.4
			c0.7,0.6,1.2,1.4,1.6,2.3c0.4,0.9,0.7,1.9,0.8,3h-1.9c-0.1-0.9-0.3-1.7-0.6-2.4c-0.3-0.7-0.7-1.3-1.2-1.8
			c-0.5-0.5-1.1-0.8-1.8-1.1c-0.7-0.3-1.5-0.4-2.5-0.4c-1,0-2,0.2-2.8,0.6c-0.8,0.4-1.5,1-2.1,1.7c-0.6,0.7-1,1.6-1.3,2.6
			c-0.3,1-0.4,2.2-0.4,3.4v2.8c0,1.2,0.1,2.3,0.4,3.4c0.3,1,0.7,1.9,1.2,2.7c0.5,0.7,1.2,1.3,2,1.7c0.8,0.4,1.7,0.6,2.7,0.6
			c2,0,3.4-0.5,4.4-1.4c1-0.9,1.6-2.3,1.8-4.2H119.2z"/>
		<path class="st1" d="M137.8,97.8h-10l-2.3,6.2h-2l8.4-22.1h1.8L142,104h-1.9L137.8,97.8z M128.4,96.2h8.9l-4.4-12L128.4,96.2z"/>
		<path class="st1" d="M160.5,83.5h-7.6V104h-1.9V83.5h-7.6v-1.6h17V83.5z"/>
		<path class="st1" d="M168.5,104h-1.9V81.9h1.9V104z"/>
		<path class="st1" d="M193,94.1c0,1.5-0.2,2.9-0.6,4.2c-0.4,1.2-1,2.3-1.7,3.2c-0.7,0.9-1.6,1.6-2.7,2c-1.1,0.5-2.2,0.7-3.6,0.7
			c-1.3,0-2.5-0.2-3.5-0.7c-1.1-0.5-2-1.2-2.7-2c-0.8-0.9-1.3-1.9-1.8-3.2c-0.4-1.2-0.6-2.6-0.6-4.2v-2.4c0-1.5,0.2-2.9,0.6-4.2
			s1-2.3,1.7-3.2c0.7-0.9,1.7-1.6,2.7-2c1.1-0.5,2.2-0.7,3.5-0.7c1.3,0,2.5,0.2,3.6,0.7c1.1,0.5,2,1.2,2.7,2c0.8,0.9,1.3,2,1.7,3.2
			s0.6,2.7,0.6,4.2V94.1z M191.1,91.7c0-1.3-0.2-2.5-0.5-3.5c-0.3-1.1-0.7-1.9-1.3-2.7c-0.6-0.7-1.3-1.3-2.1-1.7
			c-0.8-0.4-1.8-0.6-2.9-0.6c-1,0-2,0.2-2.8,0.6c-0.8,0.4-1.5,1-2.1,1.7c-0.6,0.7-1,1.6-1.3,2.7c-0.3,1.1-0.5,2.2-0.5,3.5v2.4
			c0,1.3,0.2,2.5,0.5,3.6c0.3,1.1,0.8,1.9,1.4,2.7c0.6,0.7,1.3,1.3,2.1,1.7c0.8,0.4,1.8,0.6,2.8,0.6c1.1,0,2-0.2,2.9-0.6
			c0.8-0.4,1.5-1,2.1-1.7c0.6-0.7,1-1.6,1.3-2.7c0.3-1.1,0.4-2.2,0.4-3.6V91.7z"/>
		<path class="st1" d="M216.3,104h-1.9l-12.7-18.9V104h-1.9V81.9h1.9l12.7,18.9V81.9h1.9V104z"/>
	</g>
</g>
</svg>
