<svg width="27" height="27" viewBox="0 0 27 27" fill="none" xmlns="http://www.w3.org/2000/svg">
<path d="M22 5.5V20C22 22.2 20.2 24 18 24H10.7C9.62 24 8.6 23.57 7.85 22.81L0 14.83C0 14.83 1.26 13.6 1.3 13.58C1.52 13.39 1.79 13.29 2.09 13.29C2.31 13.29 2.51 13.35 2.69 13.45C2.73 13.46 7 15.91 7 15.91V4C7 3.17 7.67 2.5 8.5 2.5C9.33 2.5 10 3.17 10 4V11H11V1.5C11 0.67 11.67 0 12.5 0C13.33 0 14 0.67 14 1.5V11H15V2.5C15 1.67 15.67 1 16.5 1C17.33 1 18 1.67 18 2.5V11H19V5.5C19 4.67 19.67 4 20.5 4C21.33 4 22 4.67 22 5.5Z" fill="white"/>
<rect x="25.3436" y="1.47876" width="1.4129" height="33.75" rx="0.706449" transform="rotate(45 25.3436 1.47876)" fill="white" stroke="#494949" stroke-width="0.25"/>
</svg>
