<svg xmlns="http://www.w3.org/2000/svg" width="495.688" height="367.536" viewBox="0 0 495.688 367.536">
  <g id="Group_5458" data-name="Group 5458" transform="translate(-9.864 -17.006)">
    <path id="Path_13581" data-name="Path 13581" d="M393.783,276.843s33.613-38.892,20.477-85.937-38.491-44.137-61.065-91.336-45.556-76.2-103.24-62.036c-52.716,12.945-70.3,60.254-104.385,58.4s-82.836,76.58-30.719,161.646Z" transform="translate(88.247 18.18)" fill="#f0dbd8"/>
    <g id="Group_5454" data-name="Group 5454" transform="translate(71.161 17.006)">
      <path id="Path_13582" data-name="Path 13582" d="M39.416,44.146V305.833L169.832,262.31V17.006Z" transform="translate(-39.416 -17.006)" fill="#f7ac8f"/>
      <path id="Path_13583" data-name="Path 13583" d="M46.257,46.351V283.827l105.586-27.3V24.057Z" transform="translate(-32.067 -9.431)" fill="#db815f"/>
      <path id="Path_13584" data-name="Path 13584" d="M88.489,82.743V120.45l11.631-3.9V79.4Z" transform="translate(13.3 50.016)" fill="#f7ac8f"/>
      <g id="Group_5453" data-name="Group 5453" transform="translate(31.041 39.726)">
        <path id="Path_13585" data-name="Path 13585" d="M54.381,56.446l.12,28.786a4.332,4.332,0,0,0,5.374,3.985l69.561-14.752a6.238,6.238,0,0,0,5.115-6l-.114-27.407a5.187,5.187,0,0,0-6.405-4.779L59.6,50.36A6.319,6.319,0,0,0,54.381,56.446Z" transform="translate(-54.381 -36.158)" fill="#fff9bf"/>
      </g>
      <text id="PLEASE" transform="matrix(0.972, -0.233, 0.233, 0.972, 49.654, 68.159)" fill="#b55c58" font-size="12" font-family="Poppins-ExtraBoldItalic, Poppins" font-weight="800" font-style="italic"><tspan x="0" y="0">PLEASE</tspan></text>
      <text id="WAIT" transform="matrix(0.972, -0.233, 0.233, 0.972, 57.267, 80.669)" fill="#b55c58" font-size="12" font-family="Poppins-ExtraBoldItalic, Poppins" font-weight="800" font-style="italic"><tspan x="0" y="0">WAIT</tspan></text>
    </g>
    <path id="Path_13586" data-name="Path 13586" d="M83.159,167.364s28.9-16.579,131.336-32.416,233.091-4.8,279.047,45.6-46.485,100.807-166.755,79.482-214.6-2.908-271.848-7.756S-17.136,186.345,83.159,167.364Z" transform="translate(0 119.489)" fill="#f9c0af"/>
    <path id="Path_13587" data-name="Path 13587" d="M116.88,159.037s11.974-16.1,33.285-20.968S180.007,157.907,212,159.037s66.265,6.3,70.752,22,2.7,40.242-38.122,41.435S139.894,200.5,126.2,201.611,103.251,174.594,116.88,159.037Z" transform="translate(107.769 129.368)" fill="#d69683"/>
    <g id="Group_5455" data-name="Group 5455" transform="translate(52.144 260.863)">
      <path id="Path_13588" data-name="Path 13588" d="M36.766,162.234s.485,6.436,3.41,7.077l2.6,10.713s1.624,1.626,9.34,1.95,9.506-1.624,9.506-1.624l1.786-11.039a6.884,6.884,0,0,0,4.061-7.077Z" transform="translate(-23.245 -104.855)" fill="#ee8d00"/>
      <path id="Path_13589" data-name="Path 13589" d="M67.472,163.623c0,1.193-4.476,2.207-10.662,2.553-1.481.083-3.055.127-4.692.127H51.9c-.653,0-1.3-.01-1.925-.025-2.344-.058-4.518-.2-6.4-.427-4.109-.479-6.814-1.3-6.814-2.228,0-.664,1.394-1.278,3.7-1.746h0a50.077,50.077,0,0,1,6.857-.8c1.286-.079,2.647-.122,4.055-.131.245-.006.487-.006.732-.006,1.773,0,3.478.054,5.063.151C63.176,161.458,67.472,162.453,67.472,163.623Z" transform="translate(-23.246 -106.244)" fill="#432200"/>
      <path id="Path_13590" data-name="Path 13590" d="M45.664,172.772s-.442-8.986,4.717-13.561,4.565-5.559,5.31-9.894,5.117-7.1,7.245-6.233-4.211,6.822-1.45,9.183.245,5.063-1.744,7.007.757,3.006-.533,6.847-6.847,4.636-6.214,7.471,1.108,6.3-1.135,8.591a18.049,18.049,0,0,1-4.885,3.472S45.342,177.246,45.664,172.772Z" transform="translate(-13.732 -125.597)" fill="#496b52"/>
      <path id="Path_13591" data-name="Path 13591" d="M56.339,175.7c-1.751,4.265-3.456,9.382-3.456,9.382a21.71,21.71,0,0,1,1.2,4.333,9.007,9.007,0,0,1-.371,5.084c-1.481.083-3.055.127-4.692.127h-.216c-.653,0-1.3-.01-1.925-.025-.581-1.1-1.589-3.022-2.647-5.2-2.051-4.231-4.3-9.421-4.026-11.385,0,0-1.253-7.868-.025-13.335a7.87,7.87,0,0,1,2.1-4.211c4.265-3.779-3.777-9.261,0-13.526s7.554-4.387,6.092-9.626,6.824-2.56,5.727,4.387,0,8.164,1.95,11.576-6.7,11.087-4.752,13.036S58.088,171.44,56.339,175.7Z" transform="translate(-20.152 -134.571)" fill="#739465"/>
      <path id="Path_13592" data-name="Path 13592" d="M58.9,188.979c-.653,0-1.3-.01-1.925-.025-2.344-.058-4.518-.2-6.4-.427a4.175,4.175,0,0,0-3.105-3.974h0c-3.622-1.34-4.6-3.9-2.891-8.529s-1.585-4.387-5.727-8.407-.73-8.409-1.34-11.089-3.777-1.7-5-4.63,1.95-6.824-.73-8.9-1.481-3.835.73-2.925a10.924,10.924,0,0,1,5.239,3.292c2.682,2.8.245,5.482,3.047,5.847s6.214,2.437,5.849,5.849c-.234,2.192,1.647,2.676,3.63,3.968a8.335,8.335,0,0,1,3.072,3.344c2.315,4.63-.365,10.6,1.583,12.794,1.162,1.307,2.661,4.767,3.451,8.452A20.812,20.812,0,0,1,58.9,188.979Z" transform="translate(-30.248 -128.92)" fill="#94b171"/>
    </g>
    <g id="Group_5457" data-name="Group 5457" transform="translate(226.474 105.374)">
      <path id="Path_13593" data-name="Path 13593" d="M129.613,139.591l-8,60.468h4L136.4,145.512l22.536,2.56,4.846,59.854H168.1l-1.172-59.611,18.417-10.319,6.795,56.731,2.9.614,1.7-1.651-5.276-70.212Z" transform="translate(-106.426 8.999)" fill="#b35555"/>
      <path id="Path_13594" data-name="Path 13594" d="M132.832,138.663s15.266,3.109,21.082,2.282,25.685-11.974,26.17-15.851-17.446-4.362-17.446-4.362Z" transform="translate(-94.379 6.05)" fill="#334947"/>
      <g id="Group_5456" data-name="Group 5456">
        <path id="Path_13595" data-name="Path 13595" d="M121.6,104.3s8.687,11.278,17.137,12.943,12.02-9.1,12.02-9.1Z" transform="translate(-106.449 -11.604)" fill="#e28869"/>
        <path id="Path_13596" data-name="Path 13596" d="M144.8,79.4s-8.728,4.543-10.632,27.4-3.3,27.137-3.3,27.137l9.293,2.7,6.708-42.215Z" transform="translate(-96.498 -38.352)" fill="#769069"/>
        <path id="Path_13597" data-name="Path 13597" d="M137.864,193.887c-.382-7.662-1.215-21.344-2.7-31.489-2.168-14.862-5.895-23.43-5.895-23.43l13.8-10.288L126.5,119.964s-8.384,5.478-11.842,10.6c-2.854,4.227,12.028,48.522,17.295,63.814h0s-8.923,13.725-12.178,17.069.1,3.655,6.092,2.607,9.266-8.094,10.89-8.664,1.483,2.4,1.483,2.4l2.821-.238s2.253-5.055-1.346-11.334A8.659,8.659,0,0,0,137.864,193.887Z" transform="translate(-114.293 5.226)" fill="#e28869"/>
        <path id="Path_13598" data-name="Path 13598" d="M156.035,207.906l-2.781.552s-.2-2.97-1.742-2.217-4.007,8.121-9.836,9.836-9.207,1.78-6.351-1.9a95.988,95.988,0,0,0,6.038-10.323l.114-.228c2.19-4.124,4.018-7.78,4.018-7.78-6.961-14.6-26.747-56.931-24.387-61.455,2.856-5.476,10.57-11.865,10.57-11.865l16.283,13.588-11.379,4.98s4.675,8.094,8.5,22.615c2.618,9.913,4.988,23.414,6.237,30.985a7.5,7.5,0,0,1,1.342,1.191,9.642,9.642,0,0,1,.753.915C157.7,202.621,156.035,207.906,156.035,207.906Z" transform="translate(-107.182 7.973)" fill="#f39f7d"/>
        <path id="Path_13599" data-name="Path 13599" d="M172.421,83.014c2.23,1.657-4.366,44.608-4.366,44.608s2.827,13.171,2.8,15.553-9.39,6.347-17.009,6.982-17.023-5.078-17.023-5.078,2.263-23.646.836-28.249-4.126-11.585-3.651-17.3,7.459-18.826,7.459-18.826S159.883,73.7,172.421,83.014Z" transform="translate(-93.172 -39.66)" fill="#a1b173"/>
        <path id="Path_13600" data-name="Path 13600" d="M133.852,73.706S135.9,85.7,138.758,89.873s7.666,6.069,10.95,4.663c0,0-.251,5.125,2.62,6.185s7.666-7,7.666-7l-1.734-6.561s.962-15.109-.5-19.956S134.588,60.487,133.852,73.706Z" transform="translate(-93.283 -55.357)" fill="#f39f7d"/>
        <path id="Path_13601" data-name="Path 13601" d="M188.942,108.644s6.44,15.671,1.738,26.185S151,151.234,151,151.234s-11.9-11.975-34.042-14.03c0,0,12.618-10.726,23.329-15.011s14.391-4.713,14.391-4.713l.591-7.171S164.75,117.947,188.942,108.644Z" transform="translate(-111.431 -6.934)" fill="#44467f"/>
        <path id="Path_13602" data-name="Path 13602" d="M149.107,169.914l-2.781.552s-.2-2.97-1.742-2.217-4.007,8.121-9.836,9.836-9.207,1.78-6.351-1.9a95.988,95.988,0,0,0,6.038-10.323,2.017,2.017,0,0,0,1.419,1.514c3.095,1.114,7.075-8.969,9.884-9.483a9.642,9.642,0,0,1,.753.915C150.773,164.629,149.107,169.914,149.107,169.914Z" transform="translate(-100.254 45.965)" fill="#1d1700"/>
        <path id="Path_13603" data-name="Path 13603" d="M138.9,168.581l-2.825.236s.135-2.974-1.483-2.4-4.893,7.621-10.877,8.67-9.349.738-6.1-2.6a96.238,96.238,0,0,0,7.158-9.581,2.017,2.017,0,0,0,1.238,1.664c2.952,1.454,8.038-8.121,10.886-8.316a9.78,9.78,0,0,1,.645.991C141.152,163.516,138.9,168.581,138.9,168.581Z" transform="translate(-112.08 44.207)" fill="#1d1700"/>
        <path id="Path_13604" data-name="Path 13604" d="M158.387,80.51s4.756,3.028,6.185,13.026-7.137,43.179-7.137,43.179L147.02,130.4l5.49-28.135S152.521,83.833,158.387,80.51Z" transform="translate(-79.138 -37.156)" fill="#769069"/>
        <path id="Path_13605" data-name="Path 13605" d="M143.1,64.675s-7.144-3.122-11.255,3.431,3.369,14.281,7.977,10.543c0,0,6.878,1.958,13.964-4.161,0,0-.979,4.866,1.614,7.413,0,0,.193,2.624,1.236,3.095,0,0-.359-5.088,1.442-5.87s3.039,1.829,2.472,5.221S158.2,88.6,158.2,88.6s.755,5.536,4.445,4.991,5.909-12.9,5.536-18.546-3.107-7.608-3.107-7.608-.348-3.561-6.125-5.905S143.1,64.675,143.1,64.675Z" transform="translate(-96.716 -58.172)" fill="#b55c58"/>
        <path id="Path_13606" data-name="Path 13606" d="M145.977,66.661s-3.4-4.989,2.655-6.793,11.251,6.26,8.741,10.537S147.443,73.094,145.977,66.661Z" transform="translate(-81.28 -59.609)" fill="#b55c58"/>
        <path id="Path_13607" data-name="Path 13607" d="M126.047,99.643,142,97.023,159.652,116.9s-8.49,7.617-23.843,4.225l-20.354-24.1Z" transform="translate(-113.047 -19.418)" fill="#fff"/>
        <path id="Path_13608" data-name="Path 13608" d="M140.38,102.607s16.227,2.029,21.41,3.381,8.788,6.086,8.788,7.662-3.371,4.889-9.573,4.3-26.1-10.614-26.1-10.614v-5.748Z" transform="translate(-92.153 -14.509)" fill="#f39f7d"/>
        <path id="Path_13609" data-name="Path 13609" d="M148.013,104.889s-9.307-4.995-11-5.557-8.564.674-9.579,1.464,1.69,1.352,4.959.676l-.114.566s-6.422.448-5.972,1.518,2.2.618,2.2.618-2.029.9-1.3,1.408,3.493,0,3.493,0l2.309.226s-3.605.9-4.111,2.029,1.126.9,1.97.564,1.24-.508,1.24-.508a60.941,60.941,0,0,0,8.224,2.423,44.413,44.413,0,0,0,5.752.56Z" transform="translate(-101.408 -17.091)" fill="#f39f7d"/>
        <path id="Path_13610" data-name="Path 13610" d="M118.335,99.888a1.656,1.656,0,0,0-.2,2.806c1.668,1.726,5.441.409,5.237.031-.624-1.162-3.566-1.093-3.566-1.093Z" transform="translate(-110.908 -16.34)" fill="#e28869"/>
        <path id="Path_13611" data-name="Path 13611" d="M119.482,101.208a1.657,1.657,0,0,0-.2,2.806c1.666,1.726,5.441.409,5.237.029-.624-1.159-3.568-1.091-3.568-1.091Z" transform="translate(-109.675 -14.922)" fill="#e28869"/>
        <path id="Path_13612" data-name="Path 13612" d="M120.2,102.007a1.654,1.654,0,0,0-.2,2.8c1.668,1.726,5.441.409,5.237.031-.624-1.162-3.566-1.091-3.566-1.091Z" transform="translate(-108.905 -14.064)" fill="#e28869"/>
        <path id="Path_13613" data-name="Path 13613" d="M121.147,103.18a1.376,1.376,0,0,0-.164,2.331c1.384,1.433,4.518.338,4.35.023-.519-.962-2.962-.9-2.962-.9Z" transform="translate(-107.725 -12.804)" fill="#e28869"/>
      </g>
    </g>
  </g>
</svg>
