<svg width="60" height="60" viewBox="0 0 60 60" fill="none" xmlns="http://www.w3.org/2000/svg">
<circle cx="30" cy="30" r="30" fill="#C3E8D1"/>
<path d="M35.7143 28.5714C38.0858 28.5714 39.9858 26.6571 39.9858 24.2857C39.9858 21.9143 38.0858 20 35.7143 20C33.3429 20 31.4286 21.9143 31.4286 24.2857C31.4286 26.6571 33.3429 28.5714 35.7143 28.5714ZM24.2858 28.5714C26.6572 28.5714 28.5572 26.6571 28.5572 24.2857C28.5572 21.9143 26.6572 20 24.2858 20C21.9143 20 20.0001 21.9143 20.0001 24.2857C20.0001 26.6571 21.9143 28.5714 24.2858 28.5714ZM24.2858 31.4286C20.9572 31.4286 14.2858 33.1 14.2858 36.4286V40H34.2858V36.4286C34.2858 33.1 27.6143 31.4286 24.2858 31.4286ZM35.7143 31.4286C35.3001 31.4286 34.8286 31.4571 34.3286 31.5C35.9858 32.7 37.1429 34.3143 37.1429 36.4286V40H45.7143V36.4286C45.7143 33.1 39.0429 31.4286 35.7143 31.4286Z" fill="#348D50"/>
</svg>
