<svg xmlns="http://www.w3.org/2000/svg" width="589.063" height="436.771" viewBox="0 0 589.063 436.771">
  <g id="Group_5465" data-name="Group 5465" transform="translate(-3625.956 1635.789)">
    <g id="Group_5464" data-name="Group 5464" transform="translate(3616.092 -1652.795)">
      <path id="Path_13614" data-name="Path 13614" d="M450.629,322.6s39.945-46.218,24.334-102.126-45.742-52.452-72.568-108.542S348.257,21.382,279.707,38.213c-62.647,15.384-83.537,71.6-124.049,69.406s-98.44,91.006-36.506,192.1Z" transform="translate(120.345 24.792)" fill="#cab9e1"/>
      <g id="Group_5460" data-name="Group 5460" transform="translate(82.708 17.006)">
        <path id="Path_13615" data-name="Path 13615" d="M39.416,49.258V360.241L194.4,308.52V17.006Z" transform="translate(-39.416 -17.006)" fill="#3a3837"/>
        <path id="Path_13616" data-name="Path 13616" d="M46.257,50.551v282.21l125.476-32.446V24.057Z" transform="translate(-29.394 -6.675)" fill="#5e443e"/>
        <path id="Path_13617" data-name="Path 13617" d="M88.489,83.373v44.811l13.823-4.639V79.4Z" transform="translate(32.474 74.394)" fill="#492317"/>
        <g id="Group_5459" data-name="Group 5459" transform="translate(36.888 47.21)">
          <path id="Path_13618" data-name="Path 13618" d="M54.381,60.267l.143,34.209a5.148,5.148,0,0,0,6.387,4.735L143.575,81.68a7.414,7.414,0,0,0,6.079-7.134l-.136-32.569c-.017-3.725-3.712-6.483-7.612-5.679L60.585,53.035A7.509,7.509,0,0,0,54.381,60.267Z" transform="translate(-54.381 -36.158)" fill="#fff9bf"/>
        </g>
        <text id="PLEASE" transform="matrix(0.972, -0.233, 0.233, 0.972, 59.136, 81.535)" fill="#210041" font-size="15" font-family="Poppins-ExtraBoldItalic, Poppins" font-weight="800" font-style="italic"><tspan x="0" y="0">PLEASE</tspan></text>
        <text id="WAIT" transform="matrix(0.972, -0.233, 0.233, 0.972, 68.183, 96.4)" fill="#210041" font-size="15" font-family="Poppins-ExtraBoldItalic, Poppins" font-weight="800" font-style="italic"><tspan x="0" y="0">WAIT</tspan></text>
      </g>
      <path id="Path_13619" data-name="Path 13619" d="M96.965,174.734s34.344-19.7,156.076-38.522,277-5.706,331.613,54.192-55.242,119.8-198.168,94.455S131.458,281.4,63.43,275.642-22.222,197.291,96.965,174.734Z" transform="translate(0 162.951)" fill="#644d87"/>
      <path id="Path_13620" data-name="Path 13620" d="M118.141,163.107s14.23-19.135,39.555-24.918,35.463,23.575,73.483,24.918,78.748,7.481,84.08,26.141,3.212,47.823-45.3,49.24S145.49,212.384,129.214,213.7,101.944,181.594,118.141,163.107Z" transform="translate(146.969 176.424)" fill="#36264d"/>
      <g id="Group_5461" data-name="Group 5461" transform="translate(60.108 306.799)">
        <path id="Path_13621" data-name="Path 13621" d="M36.766,162.234s.577,7.649,4.052,8.41l3.091,12.732s1.93,1.933,11.1,2.317,11.3-1.93,11.3-1.93l2.122-13.118a8.181,8.181,0,0,0,4.826-8.41Z" transform="translate(-20.698 -94.046)" fill="#cbed00"/>
        <path id="Path_13622" data-name="Path 13622" d="M73.256,164.128c0,1.417-5.319,2.623-12.67,3.034-1.76.1-3.631.15-5.576.15h-.256c-.776,0-1.541-.012-2.287-.03-2.785-.069-5.369-.242-7.6-.508-4.883-.569-8.1-1.543-8.1-2.647,0-.789,1.656-1.518,4.4-2.076h0a59.509,59.509,0,0,1,8.149-.949c1.528-.094,3.145-.145,4.819-.155.291-.007.579-.007.87-.007,2.108,0,4.134.064,6.017.18C68.151,161.555,73.256,162.738,73.256,164.128Z" transform="translate(-20.7 -95.941)" fill="#432200"/>
        <path id="Path_13623" data-name="Path 13623" d="M45.672,178.395s-.525-10.678,5.605-16.116,5.425-6.606,6.31-11.758,6.081-8.435,8.61-7.407-5,8.107-1.723,10.912.291,6.017-2.073,8.327.9,3.572-.633,8.137-8.137,5.509-7.385,8.879,1.316,7.491-1.348,10.21a21.449,21.449,0,0,1-5.8,4.126S45.29,183.712,45.672,178.395Z" transform="translate(-7.725 -122.332)" fill="#496b52"/>
        <path id="Path_13624" data-name="Path 13624" d="M59.484,183.453c-2.08,5.068-4.107,11.149-4.107,11.149a25.8,25.8,0,0,1,1.43,5.149,10.7,10.7,0,0,1-.441,6.042c-1.76.1-3.631.15-5.576.15h-.256c-.776,0-1.541-.012-2.287-.03-.69-1.3-1.888-3.591-3.145-6.18-2.438-5.029-5.107-11.2-4.784-13.53,0,0-1.489-9.35-.03-15.847a9.353,9.353,0,0,1,2.492-5c5.068-4.491-4.489-11.006,0-16.074s8.977-5.213,7.24-11.44,8.11-3.042,6.806,5.213,0,9.7,2.317,13.757-7.964,13.175-5.647,15.492S61.562,178.385,59.484,183.453Z" transform="translate(-16.479 -134.571)" fill="#739465"/>
        <path id="Path_13625" data-name="Path 13625" d="M64.3,198.237c-.776,0-1.541-.012-2.287-.03-2.785-.069-5.369-.242-7.6-.508,0-1.08-.394-3.505-3.69-4.723h0c-4.3-1.592-5.462-4.632-3.436-10.136s-1.883-5.213-6.806-9.99-.868-9.993-1.592-13.178-4.489-2.026-5.938-5.5,2.317-8.11-.868-10.572-1.76-4.558.868-3.476a12.982,12.982,0,0,1,6.226,3.912c3.187,3.33.291,6.515,3.621,6.949s7.385,2.9,6.951,6.951c-.279,2.605,1.957,3.18,4.314,4.715a9.906,9.906,0,0,1,3.651,3.974c2.751,5.5-.434,12.6,1.881,15.2,1.38,1.553,3.163,5.664,4.1,10.045A24.731,24.731,0,0,1,64.3,198.237Z" transform="translate(-30.248 -126.865)" fill="#94b171"/>
      </g>
      <g id="Group_5463" data-name="Group 5463" transform="translate(267.277 122.02)">
        <path id="Path_13626" data-name="Path 13626" d="M131.12,142.626l-9.5,71.859h4.751l12.815-64.822,26.781,3.042,5.759,71.129h5.137l-1.393-70.841,21.886-12.263,8.075,67.418,3.444.73,2.016-1.962-6.27-83.439Z" transform="translate(-103.565 33.955)" fill="#b35555"/>
        <path id="Path_13627" data-name="Path 13627" d="M132.832,142.041s18.142,3.695,25.054,2.711,30.524-14.23,31.1-18.837-20.733-5.184-20.733-5.184Z" transform="translate(-87.135 29.932)" fill="#112321"/>
        <g id="Group_5462" data-name="Group 5462">
          <path id="Path_13628" data-name="Path 13628" d="M121.6,104.3s10.323,13.4,20.365,15.381,14.284-10.819,14.284-10.819Z" transform="translate(-103.595 5.857)" fill="#e28869"/>
          <path id="Path_13629" data-name="Path 13629" d="M147.421,79.4s-10.373,5.4-12.635,32.557-3.927,32.249-3.927,32.249L141.9,147.41l7.972-50.167Z" transform="translate(-90.025 -30.62)" fill="#769069"/>
          <path id="Path_13630" data-name="Path 13630" d="M142.3,207.813c-.454-9.106-1.444-25.364-3.2-37.42-2.576-17.661-7.005-27.844-7.005-27.844l16.4-12.226-19.7-10.358s-9.963,6.51-14.072,12.591c-3.392,5.024,14.294,57.663,20.553,75.834h0S124.67,224.7,120.8,228.673s.123,4.343,7.24,3.1,11.011-9.618,12.941-10.3,1.762,2.857,1.762,2.857l3.352-.283s2.677-6.007-1.6-13.469A10.291,10.291,0,0,0,142.3,207.813Z" transform="translate(-114.293 28.809)" fill="#e28869"/>
          <path id="Path_13631" data-name="Path 13631" d="M162.652,223.991l-3.305.656s-.237-3.53-2.071-2.635-4.762,9.65-11.689,11.689-10.942,2.115-7.548-2.263c1.664-2.14,4.607-7.437,7.175-12.268l.136-.271c2.6-4.9,4.775-9.246,4.775-9.246-8.272-17.346-31.786-67.656-28.98-73.032,3.394-6.507,12.561-14.1,12.561-14.1l19.35,16.148-13.523,5.918s5.556,9.618,10.106,26.875c3.111,11.78,5.928,27.824,7.412,36.821a8.914,8.914,0,0,1,1.595,1.415,11.457,11.457,0,0,1,.895,1.087C164.631,217.71,162.652,223.991,162.652,223.991Z" transform="translate(-104.595 32.555)" fill="#f39f7d"/>
          <path id="Path_13632" data-name="Path 13632" d="M179.667,83.925c2.65,1.969-5.189,53.011-5.189,53.011s3.36,15.652,3.33,18.482-11.159,7.543-20.213,8.3-20.23-6.034-20.23-6.034,2.689-28.1.993-33.57-4.9-13.767-4.338-20.558,8.864-22.372,8.864-22.372S164.767,72.86,179.667,83.925Z" transform="translate(-85.489 -32.404)" fill="#a1b173"/>
          <path id="Path_13633" data-name="Path 13633" d="M133.852,75.616s2.433,14.25,5.83,19.212,9.11,7.212,13.013,5.541c0,0-.3,6.091,3.113,7.35s9.11-8.314,9.11-8.314l-2.061-7.8s1.144-17.955-.592-23.715S134.727,59.907,133.852,75.616Z" transform="translate(-85.641 -53.811)" fill="#f39f7d"/>
          <path id="Path_13634" data-name="Path 13634" d="M202.5,108.644s7.654,18.623,2.066,31.118-47.155,19.5-47.155,19.5-14.144-14.23-40.455-16.673c0,0,14.994-12.746,27.723-17.839s17.1-5.6,17.1-5.6l.7-8.521S173.753,119.7,202.5,108.644Z" transform="translate(-110.39 12.225)" fill="#44467f"/>
          <path id="Path_13635" data-name="Path 13635" d="M153.2,172.18l-3.305.656s-.237-3.53-2.071-2.635-4.762,9.65-11.689,11.689S125.2,184,128.591,179.626c1.664-2.14,4.607-7.437,7.175-12.268a2.4,2.4,0,0,0,1.686,1.8c3.678,1.324,8.408-10.658,11.746-11.27a11.457,11.457,0,0,1,.895,1.087C155.183,165.9,153.2,172.18,153.2,172.18Z" transform="translate(-95.147 84.366)" fill="#1d1700"/>
          <path id="Path_13636" data-name="Path 13636" d="M143.151,170.9l-3.357.281s.16-3.535-1.762-2.852-5.815,9.056-12.926,10.3-11.11.878-7.247-3.094c1.893-1.94,5.411-6.872,8.507-11.386a2.4,2.4,0,0,0,1.472,1.977c3.508,1.728,9.552-9.65,12.936-9.882a11.628,11.628,0,0,1,.767,1.178C145.823,164.884,143.151,170.9,143.151,170.9Z" transform="translate(-111.275 81.969)" fill="#1d1700"/>
          <path id="Path_13637" data-name="Path 13637" d="M160.528,80.51s5.652,3.6,7.35,15.48S159.4,147.3,159.4,147.3L147.02,139.8l6.525-33.435S153.557,84.459,160.528,80.51Z" transform="translate(-66.35 -28.99)" fill="#769069"/>
          <path id="Path_13638" data-name="Path 13638" d="M145.448,65.377s-8.489-3.71-13.375,4.077,4,16.971,9.48,12.529c0,0,8.174,2.327,16.594-4.945,0,0-1.163,5.783,1.918,8.81,0,0,.229,3.118,1.469,3.678,0,0-.426-6.047,1.713-6.976s3.611,2.174,2.938,6.2-2.8,5.051-2.8,5.051.9,6.579,5.282,5.931S175.7,84.411,175.252,77.7s-3.693-9.041-3.693-9.041-.414-4.232-7.279-7.018S145.448,65.377,145.448,65.377Z" transform="translate(-90.323 -57.649)" fill="#b55c58"/>
          <path id="Path_13639" data-name="Path 13639" d="M146.156,67.99s-4.04-5.928,3.155-8.073,13.37,7.439,10.387,12.522S147.9,75.634,146.156,67.99Z" transform="translate(-69.272 -59.609)" fill="#b55c58"/>
          <path id="Path_13640" data-name="Path 13640" d="M128.043,100.136,147,97.023l20.979,23.624s-10.089,9.051-28.335,5.021L115.454,97.023Z" transform="translate(-112.593 -4.799)" fill="#fff"/>
          <path id="Path_13641" data-name="Path 13641" d="M141.411,102.8s19.283,2.411,25.443,4.018,10.444,7.232,10.444,9.106-4.006,5.81-11.376,5.115S134.9,108.423,134.9,108.423v-6.83Z" transform="translate(-84.1 1.896)" fill="#f39f7d"/>
          <path id="Path_13642" data-name="Path 13642" d="M152.106,105.962s-11.06-5.936-13.069-6.6-10.178.8-11.383,1.74,2.009,1.607,5.894.8l-.136.673s-7.631.532-7.1,1.8,2.613.735,2.613.735-2.411,1.072-1.541,1.674,4.151,0,4.151,0l2.744.269s-4.284,1.072-4.886,2.411,1.338,1.072,2.342.67,1.474-.6,1.474-.6a72.419,72.419,0,0,0,9.774,2.879,52.782,52.782,0,0,0,6.835.666Z" transform="translate(-96.722 -1.625)" fill="#f39f7d"/>
          <path id="Path_13643" data-name="Path 13643" d="M118.5,99.888s-2.216,1.284-.237,3.335,6.466.486,6.224.037c-.742-1.38-4.237-1.3-4.237-1.3Z" transform="translate(-109.677 -0.602)" fill="#e28869"/>
          <path id="Path_13644" data-name="Path 13644" d="M119.649,101.208s-2.214,1.284-.234,3.335,6.466.486,6.224.035c-.742-1.378-4.24-1.3-4.24-1.3Z" transform="translate(-107.996 1.332)" fill="#e28869"/>
          <path id="Path_13645" data-name="Path 13645" d="M120.368,102.007s-2.216,1.282-.237,3.333,6.466.486,6.224.037c-.742-1.38-4.237-1.3-4.237-1.3Z" transform="translate(-106.945 2.502)" fill="#e28869"/>
          <path id="Path_13646" data-name="Path 13646" d="M121.286,103.18a1.635,1.635,0,0,0-.195,2.771c1.644,1.7,5.369.4,5.169.027-.616-1.144-3.52-1.075-3.52-1.075Z" transform="translate(-105.336 4.221)" fill="#e28869"/>
        </g>
      </g>
    </g>
  </g>
</svg>
