<svg xmlns="http://www.w3.org/2000/svg" xmlns:xlink="http://www.w3.org/1999/xlink" width="177.7" height="66.9" viewBox="0 0 177.7 66.9">
  <defs>
    <linearGradient id="linear-gradient" x1="0.679" y1="1.04" x2="0.222" y2="0.384" gradientUnits="objectBoundingBox">
      <stop offset="0" stop-color="#92278f"/>
      <stop offset="1" stop-color="#485fab"/>
    </linearGradient>
  </defs>
  <g id="monet_E" data-name="monet E" transform="translate(-38.6 -37.5)">
    <g id="Group_5320" data-name="Group 5320">
      <g id="Group_5318" data-name="Group 5318">
        <path id="Path_13388" data-name="Path 13388" d="M41.9,69.7c6-4.9,11.6-9.5,17.1-14l-17.1-18Z" fill="url(#linear-gradient)"/>
        <path id="Path_13389" data-name="Path 13389" d="M59.9,55.5S76.3,38.2,76.8,37.8V69.9h-1V46L59.9,62.1Z" fill="#fff"/>
      </g>
      <path id="Path_13390" data-name="Path 13390" d="M149.3,51.9V66.5l-22-23.6V66.5h-1.8V38.1S142,55.4,147.4,61.6V51.9h1.9Z" fill="#fff"/>
      <path id="Path_13391" data-name="Path 13391" d="M213,38.1v1.7H201.5V66.5h-2V39.8H188V38.1Z" fill="#fff"/>
      <g id="Group_5319" data-name="Group 5319">
        <path id="Path_13392" data-name="Path 13392" d="M93.3,41a14,14,0,0,1,6.6-1.6,12.912,12.912,0,0,1,6.6,1.6c.5.3,1,.6,1.4.9h.1l1.5-1.2-.1-.1a12.735,12.735,0,0,0-1.9-1.3,16.944,16.944,0,0,0-15.2,0,12.914,12.914,0,0,0-5,5.1,15.923,15.923,0,0,0-1.8,7.7,16.432,16.432,0,0,0,1,6v.1l1.7-1.3v-.1a17.332,17.332,0,0,1-.7-4.8A15.23,15.23,0,0,1,89,45.1,13.065,13.065,0,0,1,93.3,41Z" fill="#fff"/>
        <path id="Path_13393" data-name="Path 13393" d="M113.4,46.8v-.1L111.7,48v.1a14.515,14.515,0,0,1,.5,4.3,15.23,15.23,0,0,1-1.5,6.9,10.956,10.956,0,0,1-4.3,4.5,14,14,0,0,1-6.6,1.6,12.912,12.912,0,0,1-6.6-1.6,3.592,3.592,0,0,1-1-.7h-.1l-1.5,1.2.1.1c.5.3,1,.7,1.5,1a15.258,15.258,0,0,0,7.6,1.8,15.526,15.526,0,0,0,7.6-1.8,11.724,11.724,0,0,0,5-5.1,15.893,15.893,0,0,0,1.7-7.7A17.091,17.091,0,0,0,113.4,46.8Z" fill="#fff"/>
      </g>
      <path id="Path_13394" data-name="Path 13394" d="M182.6,64.8v1.7H160.7V51.9h17.1v1.8H162.6V64.8Z" fill="#fff"/>
      <rect id="Rectangle_1192" data-name="Rectangle 1192" width="21.9" height="1.7" transform="translate(160.7 38.1)" fill="#fff"/>
    </g>
    <g id="Group_5321" data-name="Group 5321">
      <path id="Path_13395" data-name="Path 13395" d="M50.8,93.4H40.4v9l12.9.1v1.6L38.6,104V81.9l14.6.1v1.6l-12.8-.1v8.3H50.7v1.6Z" fill="#fff"/>
      <path id="Path_13396" data-name="Path 13396" d="M58.4,104V81.9h6.2a9.521,9.521,0,0,1,3.8.7,9.268,9.268,0,0,1,3,2,8.518,8.518,0,0,1,1.9,3.2,10.7,10.7,0,0,1,.7,4.1v2a10.7,10.7,0,0,1-.7,4.1,9.62,9.62,0,0,1-2,3.2,6.912,6.912,0,0,1-3,2,10.016,10.016,0,0,1-3.9.7h-6Zm1.9-20.5v18.9h4.2a7.943,7.943,0,0,0,3.2-.6,6.138,6.138,0,0,0,2.4-1.7,5.94,5.94,0,0,0,1.5-2.7,9.337,9.337,0,0,0,.5-3.4V91.9a12.857,12.857,0,0,0-.5-3.5,9.34,9.34,0,0,0-1.5-2.6,8.068,8.068,0,0,0-2.4-1.7,7.79,7.79,0,0,0-3.1-.6H60.3Z" fill="#fff"/>
      <path id="Path_13397" data-name="Path 13397" d="M96.2,81.9v15a8.808,8.808,0,0,1-.6,3.3,5.774,5.774,0,0,1-1.7,2.3,6.773,6.773,0,0,1-2.5,1.4,9.928,9.928,0,0,1-3,.5,10.588,10.588,0,0,1-3.1-.5,7.68,7.68,0,0,1-2.5-1.4,6.342,6.342,0,0,1-1.6-2.3,8.109,8.109,0,0,1-.6-3.3v-15h1.9v15a6.249,6.249,0,0,0,.4,2.5,5.675,5.675,0,0,0,1.2,1.8,4.532,4.532,0,0,0,1.9,1.1,8.6,8.6,0,0,0,2.4.4,6.051,6.051,0,0,0,2.4-.4,5.243,5.243,0,0,0,1.9-1.1,5.675,5.675,0,0,0,1.2-1.8,6.566,6.566,0,0,0,.4-2.5v-15Z" fill="#fff"/>
      <path id="Path_13398" data-name="Path 13398" d="M119.2,97.1a9.469,9.469,0,0,1-.8,3,7.326,7.326,0,0,1-1.6,2.3,6.773,6.773,0,0,1-2.5,1.4,10.9,10.9,0,0,1-3.3.5,7.391,7.391,0,0,1-3.4-.7,8.6,8.6,0,0,1-2.6-2,10.3,10.3,0,0,1-1.7-3.1,13.089,13.089,0,0,1-.6-4.1V91.6a13.546,13.546,0,0,1,.6-4.1,9.218,9.218,0,0,1,1.7-3.1,6.829,6.829,0,0,1,2.7-2,7.824,7.824,0,0,1,3.5-.7,10.732,10.732,0,0,1,3.2.5,7.217,7.217,0,0,1,2.4,1.4,6.342,6.342,0,0,1,1.6,2.3,9.469,9.469,0,0,1,.8,3h-1.9a8.441,8.441,0,0,0-.6-2.4,5.675,5.675,0,0,0-1.2-1.8,5.443,5.443,0,0,0-1.8-1.1,6.249,6.249,0,0,0-2.5-.4,6.388,6.388,0,0,0-2.8.6,6.845,6.845,0,0,0-2.1,1.7,7.065,7.065,0,0,0-1.3,2.6,12.2,12.2,0,0,0-.4,3.4v2.8a12.673,12.673,0,0,0,.4,3.4,11.065,11.065,0,0,0,1.2,2.7,5.51,5.51,0,0,0,2,1.7,5.954,5.954,0,0,0,2.7.6,5.522,5.522,0,0,0,6.2-5.6h2.1Z" fill="#fff"/>
      <path id="Path_13399" data-name="Path 13399" d="M137.8,97.8h-10l-2.3,6.2h-2l8.4-22.1h1.8L142,104h-1.9Zm-9.4-1.6h8.9l-4.4-12Z" fill="#fff"/>
      <path id="Path_13400" data-name="Path 13400" d="M160.5,83.5h-7.6V104H151V83.5h-7.6V81.9h17v1.6Z" fill="#fff"/>
      <path id="Path_13401" data-name="Path 13401" d="M168.5,104h-1.9V81.9h1.9Z" fill="#fff"/>
      <path id="Path_13402" data-name="Path 13402" d="M193,94.1a14.213,14.213,0,0,1-.6,4.2,10.857,10.857,0,0,1-1.7,3.2,6,6,0,0,1-2.7,2,8.27,8.27,0,0,1-3.6.7,7.824,7.824,0,0,1-3.5-.7,7.936,7.936,0,0,1-2.7-2,9.889,9.889,0,0,1-1.8-3.2,13.3,13.3,0,0,1-.6-4.2V91.7a14.213,14.213,0,0,1,.6-4.2,9.737,9.737,0,0,1,1.7-3.2,6.592,6.592,0,0,1,2.7-2,8.116,8.116,0,0,1,3.5-.7,8.571,8.571,0,0,1,3.6.7,7.936,7.936,0,0,1,2.7,2,8.95,8.95,0,0,1,1.7,3.2,13.744,13.744,0,0,1,.6,4.2v2.4Zm-1.9-2.4a12.3,12.3,0,0,0-.5-3.5,7.541,7.541,0,0,0-1.3-2.7,6.845,6.845,0,0,0-2.1-1.7,6.527,6.527,0,0,0-2.9-.6,6.388,6.388,0,0,0-2.8.6,6.506,6.506,0,0,0-3.4,4.4,12.857,12.857,0,0,0-.5,3.5v2.4a13.609,13.609,0,0,0,.5,3.6,7.693,7.693,0,0,0,1.4,2.7,6.845,6.845,0,0,0,2.1,1.7,6.388,6.388,0,0,0,2.8.6,6.311,6.311,0,0,0,6.3-5,13.223,13.223,0,0,0,.4-3.6V91.7Z" fill="#fff"/>
      <path id="Path_13403" data-name="Path 13403" d="M216.3,104h-1.9L201.7,85.1V104h-1.9V81.9h1.9l12.7,18.9V81.9h1.9Z" fill="#fff"/>
    </g>
  </g>
</svg>
