<?xml version="1.0" encoding="utf-8"?>
<!-- Generator: Adobe Illustrator 22.0.1, SVG Export Plug-In . SVG Version: 6.00 Build 0)  -->
<svg version="1.1" id="Layer_1" xmlns="http://www.w3.org/2000/svg" xmlns:xlink="http://www.w3.org/1999/xlink" x="0px" y="0px"
	 viewBox="0 0 372 113" style="enable-background:new 0 0 372 113;" xml:space="preserve">
<style type="text/css">
	.st0{fill:url(#SVGID_1_);}
	.st1{fill:#500EA5;}
	.st2{fill:url(#SVGID_2_);}
</style>
<g>
	
		<linearGradient id="SVGID_1_" gradientUnits="userSpaceOnUse" x1="11.2675" y1="100.55" x2="361.9795" y2="25.5098" gradientTransform="matrix(1 0 0 -1 0 114)">
		<stop  offset="0" style="stop-color:#6337C0"/>
		<stop  offset="1" style="stop-color:#690A4E"/>
	</linearGradient>
	<path class="st0" d="M8.1,15.8h6.6l16.8,41.7l16.7-41.7h6.6L34,67h-5.1L8.1,15.8z M5.9,15.8h5.8L12.7,47v20H5.9V15.8z M51.1,15.8
		h5.8V67h-6.8V47L51.1,15.8z M66.1,48.4v-0.8c0-2.7,0.4-5.3,1.2-7.6c0.8-2.4,1.9-4.4,3.4-6.2c1.5-1.8,3.3-3.1,5.4-4.1
		c2.1-1,4.5-1.5,7.2-1.5c2.7,0,5.1,0.5,7.2,1.5c2.2,1,4,2.3,5.5,4.1c1.5,1.7,2.7,3.8,3.5,6.2c0.8,2.3,1.2,4.9,1.2,7.6v0.8
		c0,2.7-0.4,5.3-1.2,7.6c-0.8,2.3-2,4.4-3.5,6.2c-1.5,1.7-3.3,3.1-5.4,4.1c-2.1,1-4.5,1.4-7.2,1.4c-2.7,0-5.1-0.5-7.2-1.4
		c-2.1-1-4-2.3-5.5-4.1c-1.5-1.8-2.6-3.8-3.4-6.2C66.5,53.7,66.1,51.1,66.1,48.4z M72.6,47.6v0.8c0,1.9,0.2,3.7,0.7,5.4
		c0.4,1.7,1.1,3.1,2,4.4c0.9,1.3,2.1,2.3,3.4,3.1c1.4,0.7,2.9,1.1,4.7,1.1c1.8,0,3.3-0.4,4.7-1.1c1.4-0.8,2.5-1.8,3.4-3.1
		c0.9-1.3,1.6-2.8,2-4.4c0.5-1.7,0.7-3.5,0.7-5.4v-0.8c0-1.9-0.2-3.6-0.7-5.3c-0.4-1.7-1.1-3.2-2-4.5c-0.9-1.3-2-2.3-3.4-3.1
		c-1.3-0.8-2.9-1.1-4.7-1.1c-1.8,0-3.4,0.4-4.7,1.1c-1.3,0.8-2.5,1.8-3.4,3.1c-0.9,1.3-1.6,2.8-2,4.5C72.8,43.9,72.6,45.7,72.6,47.6
		z M115.4,37.1V67h-6.5V29h6.2L115.4,37.1z M113.8,46.5l-2.7-0.1c0-2.6,0.4-5,1.2-7.2c0.8-2.2,1.8-4.2,3.2-5.8
		c1.4-1.6,3-2.9,4.9-3.8c1.9-0.9,4-1.4,6.3-1.4c1.9,0,3.6,0.3,5.1,0.8c1.5,0.5,2.8,1.3,3.8,2.4c1.1,1.1,1.9,2.5,2.5,4.3
		c0.6,1.7,0.8,3.9,0.8,6.4V67h-6.5V42c0-2-0.3-3.6-0.9-4.8c-0.6-1.2-1.4-2.1-2.6-2.6c-1.1-0.6-2.5-0.8-4.1-0.8c-1.6,0-3.1,0.3-4.4,1
		c-1.3,0.7-2.4,1.6-3.4,2.8c-0.9,1.2-1.7,2.6-2.2,4.1C114.1,43.2,113.8,44.8,113.8,46.5z M164.5,67.7c-2.6,0-5.1-0.4-7.2-1.3
		c-2.1-0.9-4-2.2-5.5-3.8c-1.5-1.6-2.7-3.6-3.5-5.8c-0.8-2.3-1.2-4.7-1.2-7.4v-1.5c0-3.1,0.5-5.8,1.4-8.3c0.9-2.4,2.2-4.5,3.7-6.2
		c1.6-1.7,3.4-3,5.3-3.8c2-0.9,4.1-1.3,6.2-1.3c2.7,0,5.1,0.5,7,1.4c2,0.9,3.6,2.3,4.9,3.9c1.3,1.7,2.2,3.6,2.8,5.9
		c0.6,2.3,0.9,4.7,0.9,7.4v2.9h-28.4v-5.3h21.9V44c-0.1-1.7-0.4-3.3-1.1-4.9c-0.6-1.6-1.5-2.9-2.8-3.9c-1.3-1-3-1.5-5.3-1.5
		c-1.5,0-2.8,0.3-4.1,0.9c-1.2,0.6-2.3,1.5-3.2,2.7c-0.9,1.2-1.6,2.7-2.1,4.5c-0.5,1.8-0.7,3.8-0.7,6.1v1.5c0,1.8,0.2,3.5,0.7,5.1
		c0.5,1.6,1.3,3,2.2,4.1c1,1.2,2.2,2.1,3.6,2.8c1.4,0.7,3,1,4.8,1c2.3,0,4.2-0.5,5.8-1.4c1.6-0.9,3-2.2,4.2-3.8l3.9,3.1
		c-0.8,1.2-1.9,2.4-3.1,3.6c-1.3,1.1-2.8,2-4.7,2.7C169.1,67.4,167,67.7,164.5,67.7z M202.8,29v5h-20.6v-5H202.8z M189.2,19.7h6.5
		v37.9c0,1.3,0.2,2.3,0.6,2.9c0.4,0.7,0.9,1.1,1.5,1.3c0.6,0.2,1.3,0.3,2,0.3c0.5,0,1.1,0,1.7-0.1c0.6-0.1,1.1-0.2,1.4-0.3l0,5.3
		c-0.5,0.2-1.2,0.3-2,0.5c-0.8,0.2-1.8,0.2-3,0.2c-1.6,0-3.1-0.3-4.4-0.9c-1.3-0.6-2.4-1.7-3.2-3.2c-0.8-1.5-1.2-3.5-1.2-6V19.7z
		 M260.3,61.5V67h-25.6v-5.5H260.3z M236,15.8V67h-6.8V15.8H236z M274.1,29v38h-6.5V29H274.1z M267.1,18.9c0-1.1,0.3-1.9,0.9-2.7
		c0.7-0.7,1.6-1.1,2.9-1.1c1.2,0,2.2,0.4,2.8,1.1c0.7,0.7,1,1.6,1,2.7c0,1-0.3,1.9-1,2.6c-0.7,0.7-1.6,1.1-2.8,1.1
		c-1.3,0-2.2-0.4-2.9-1.1C267.4,20.7,267.1,19.9,267.1,18.9z M296.2,61.1L306.6,29h6.6l-13.7,38h-4.4L296.2,61.1z M287.5,29
		l10.7,32.3l0.7,5.7h-4.4l-13.8-38H287.5z M334.8,67.7c-2.6,0-5.1-0.4-7.2-1.3c-2.1-0.9-4-2.2-5.5-3.8c-1.5-1.6-2.7-3.6-3.5-5.8
		c-0.8-2.3-1.2-4.7-1.2-7.4v-1.5c0-3.1,0.5-5.8,1.4-8.3c0.9-2.4,2.2-4.5,3.7-6.2c1.6-1.7,3.4-3,5.3-3.8c2-0.9,4.1-1.3,6.2-1.3
		c2.7,0,5.1,0.5,7,1.4c2,0.9,3.6,2.3,4.9,3.9c1.3,1.7,2.2,3.6,2.8,5.9c0.6,2.3,0.9,4.7,0.9,7.4v2.9h-28.4v-5.3h21.9V44
		c-0.1-1.7-0.4-3.3-1.1-4.9c-0.6-1.6-1.5-2.9-2.8-3.9c-1.3-1-3-1.5-5.3-1.5c-1.5,0-2.8,0.3-4.1,0.9c-1.2,0.6-2.3,1.5-3.2,2.7
		c-0.9,1.2-1.6,2.7-2.1,4.5c-0.5,1.8-0.7,3.8-0.7,6.1v1.5c0,1.8,0.2,3.5,0.7,5.1c0.5,1.6,1.3,3,2.2,4.1c1,1.2,2.2,2.1,3.6,2.8
		c1.4,0.7,3,1,4.8,1c2.3,0,4.2-0.5,5.8-1.4c1.6-0.9,3-2.2,4.2-3.8l3.9,3.1c-0.8,1.2-1.9,2.4-3.1,3.6c-1.3,1.1-2.8,2-4.7,2.7
		C339.4,67.4,337.3,67.7,334.8,67.7z"/>
	<path class="st1" d="M346.9,3.8V18H345V3.8H346.9z M351.5,3.8v1.5h-11V3.8H351.5z M354.2,3.8h1.8l4.7,11.6l4.6-11.6h1.8L361.4,18
		h-1.4L354.2,3.8z M353.6,3.8h1.6l0.3,8.7V18h-1.9V3.8z M366.1,3.8h1.6V18h-1.9v-5.5L366.1,3.8z"/>
	
		<linearGradient id="SVGID_2_" gradientUnits="userSpaceOnUse" x1="3.0347" y1="21.8117" x2="368.0347" y2="14.8116" gradientTransform="matrix(1 0 0 -1 0 114)">
		<stop  offset="0" style="stop-color:#6337C0"/>
		<stop  offset="1" style="stop-color:#681162"/>
	</linearGradient>
	<path class="st2" d="M4.5,88.2h4.2c1,0,1.8,0.1,2.4,0.4c0.7,0.3,1.2,0.7,1.5,1.3c0.4,0.6,0.5,1.3,0.5,2.1c0,0.6-0.1,1.1-0.4,1.6
		c-0.2,0.5-0.6,0.9-1,1.2c-0.4,0.3-1,0.6-1.6,0.7l-0.5,0.2h-4l0-1.4h3c0.6,0,1.1-0.1,1.5-0.3c0.4-0.2,0.7-0.5,0.9-0.9
		c0.2-0.4,0.3-0.8,0.3-1.2c0-0.5-0.1-0.9-0.3-1.3c-0.2-0.4-0.5-0.7-0.9-0.9c-0.4-0.2-0.9-0.3-1.6-0.3H6.2V101H4.5V88.2z M12,101
		l-3.1-5.8l1.8,0l3.2,5.7v0.1H12z M19.3,101.2c-0.7,0-1.3-0.1-1.8-0.3c-0.5-0.2-1-0.5-1.4-1c-0.4-0.4-0.7-0.9-0.9-1.5
		s-0.3-1.2-0.3-1.8v-0.4c0-0.8,0.1-1.5,0.3-2.1c0.2-0.6,0.5-1.1,0.9-1.5c0.4-0.4,0.8-0.7,1.3-1c0.5-0.2,1-0.3,1.5-0.3
		c0.7,0,1.3,0.1,1.8,0.4c0.5,0.2,0.9,0.6,1.2,1c0.3,0.4,0.6,0.9,0.7,1.5c0.2,0.6,0.2,1.2,0.2,1.8v0.7h-7.1v-1.3h5.5v-0.1
		c0-0.4-0.1-0.8-0.3-1.2c-0.1-0.4-0.4-0.7-0.7-1c-0.3-0.3-0.8-0.4-1.3-0.4c-0.4,0-0.7,0.1-1,0.2c-0.3,0.2-0.6,0.4-0.8,0.7
		c-0.2,0.3-0.4,0.7-0.5,1.1c-0.1,0.4-0.2,0.9-0.2,1.5v0.4c0,0.5,0.1,0.9,0.2,1.3c0.1,0.4,0.3,0.7,0.6,1c0.2,0.3,0.5,0.5,0.9,0.7
		c0.4,0.2,0.8,0.3,1.2,0.3c0.6,0,1.1-0.1,1.5-0.4c0.4-0.2,0.7-0.5,1-0.9l1,0.8c-0.2,0.3-0.5,0.6-0.8,0.9c-0.3,0.3-0.7,0.5-1.2,0.7
		C20.4,101.1,19.9,101.2,19.3,101.2z M30.5,99.4v-4.9c0-0.4-0.1-0.7-0.2-1c-0.1-0.3-0.4-0.5-0.7-0.7c-0.3-0.2-0.7-0.2-1.1-0.2
		c-0.4,0-0.8,0.1-1.1,0.2c-0.3,0.1-0.5,0.3-0.7,0.6c-0.2,0.2-0.3,0.5-0.3,0.7h-1.6c0-0.3,0.1-0.7,0.3-1c0.2-0.3,0.4-0.6,0.8-0.9
		c0.3-0.3,0.7-0.5,1.2-0.7c0.5-0.2,1-0.2,1.6-0.2c0.7,0,1.3,0.1,1.8,0.4c0.5,0.2,0.9,0.6,1.2,1.1c0.3,0.5,0.5,1.1,0.5,1.8v4.4
		c0,0.3,0,0.7,0.1,1c0.1,0.4,0.1,0.7,0.3,0.9v0.1h-1.7c-0.1-0.2-0.1-0.4-0.2-0.7C30.5,99.9,30.5,99.6,30.5,99.4z M30.8,95.2l0,1.1
		h-1.6c-0.5,0-0.9,0-1.2,0.1c-0.4,0.1-0.7,0.2-0.9,0.3c-0.2,0.1-0.4,0.3-0.6,0.6c-0.1,0.2-0.2,0.5-0.2,0.8c0,0.3,0.1,0.6,0.2,0.8
		c0.1,0.2,0.3,0.4,0.6,0.6c0.3,0.1,0.6,0.2,1,0.2c0.5,0,0.9-0.1,1.3-0.3c0.4-0.2,0.7-0.5,0.9-0.8c0.2-0.3,0.4-0.6,0.4-0.9l0.7,0.8
		c0,0.2-0.2,0.5-0.3,0.8c-0.2,0.3-0.4,0.6-0.7,0.9c-0.3,0.3-0.7,0.5-1.1,0.7c-0.4,0.2-0.9,0.3-1.4,0.3c-0.6,0-1.2-0.1-1.7-0.4
		c-0.5-0.3-0.9-0.6-1.1-1c-0.3-0.4-0.4-0.9-0.4-1.4c0-0.5,0.1-1,0.3-1.3c0.2-0.4,0.5-0.7,0.9-1c0.4-0.3,0.8-0.5,1.4-0.6
		c0.5-0.1,1.1-0.2,1.8-0.2H30.8z M36.4,87.5V101h-1.6V87.5H36.4z M48.1,88.2V101h-1.7V88.2H48.1z M52.2,88.2v1.4h-9.9v-1.4H52.2z
		 M55.7,91.5v9.5H54v-9.5H55.7z M53.9,89c0-0.3,0.1-0.5,0.2-0.7c0.2-0.2,0.4-0.3,0.7-0.3c0.3,0,0.5,0.1,0.7,0.3
		c0.2,0.2,0.3,0.4,0.3,0.7c0,0.3-0.1,0.5-0.3,0.7c-0.2,0.2-0.4,0.3-0.7,0.3c-0.3,0-0.6-0.1-0.7-0.3C54,89.4,53.9,89.2,53.9,89z
		 M59.9,93.4v7.6h-1.6v-9.5h1.5L59.9,93.4z M59.6,95.9l-0.8,0c0-0.7,0.1-1.3,0.3-1.8c0.2-0.6,0.4-1,0.7-1.5c0.3-0.4,0.7-0.7,1.2-0.9
		c0.5-0.2,1-0.3,1.7-0.3c0.4,0,0.9,0.1,1.2,0.2c0.4,0.1,0.7,0.3,1,0.6c0.3,0.3,0.5,0.6,0.6,1c0.2,0.4,0.2,0.9,0.2,1.5v6.3h-1.6v-6.3
		c0-0.5-0.1-0.9-0.3-1.2c-0.2-0.3-0.4-0.5-0.7-0.7c-0.3-0.1-0.7-0.2-1.1-0.2c-0.5,0-0.9,0.1-1.2,0.3c-0.3,0.2-0.6,0.4-0.8,0.7
		c-0.2,0.3-0.3,0.6-0.4,1C59.6,95.1,59.6,95.5,59.6,95.9z M65.7,95l-1.1,0.3c0-0.5,0.1-1,0.3-1.5c0.2-0.5,0.4-0.9,0.7-1.3
		c0.3-0.4,0.7-0.7,1.2-0.9c0.5-0.2,1-0.3,1.6-0.3c0.5,0,1,0.1,1.4,0.2c0.4,0.1,0.7,0.3,1,0.6c0.3,0.3,0.5,0.6,0.6,1.1
		c0.1,0.4,0.2,0.9,0.2,1.5v6.2H70v-6.3c0-0.5-0.1-0.9-0.3-1.2c-0.2-0.3-0.4-0.5-0.7-0.6c-0.3-0.1-0.7-0.2-1.1-0.2
		c-0.4,0-0.7,0.1-0.9,0.2c-0.3,0.1-0.5,0.3-0.7,0.5c-0.2,0.2-0.3,0.5-0.4,0.7C65.8,94.4,65.7,94.7,65.7,95z M78,101.2
		c-0.7,0-1.3-0.1-1.8-0.3c-0.5-0.2-1-0.5-1.4-1c-0.4-0.4-0.7-0.9-0.9-1.5s-0.3-1.2-0.3-1.8v-0.4c0-0.8,0.1-1.5,0.3-2.1
		c0.2-0.6,0.5-1.1,0.9-1.5c0.4-0.4,0.8-0.7,1.3-1c0.5-0.2,1-0.3,1.5-0.3c0.7,0,1.3,0.1,1.8,0.4c0.5,0.2,0.9,0.6,1.2,1
		c0.3,0.4,0.6,0.9,0.7,1.5c0.2,0.6,0.2,1.2,0.2,1.8v0.7h-7.1v-1.3h5.5v-0.1c0-0.4-0.1-0.8-0.3-1.2c-0.1-0.4-0.4-0.7-0.7-1
		c-0.3-0.3-0.8-0.4-1.3-0.4c-0.4,0-0.7,0.1-1,0.2c-0.3,0.2-0.6,0.4-0.8,0.7c-0.2,0.3-0.4,0.7-0.5,1.1c-0.1,0.4-0.2,0.9-0.2,1.5v0.4
		c0,0.5,0.1,0.9,0.2,1.3c0.1,0.4,0.3,0.7,0.6,1c0.2,0.3,0.5,0.5,0.9,0.7c0.4,0.2,0.8,0.3,1.2,0.3c0.6,0,1.1-0.1,1.5-0.4
		c0.4-0.2,0.7-0.5,1-0.9l1,0.8c-0.2,0.3-0.5,0.6-0.8,0.9c-0.3,0.3-0.7,0.5-1.2,0.7C79.2,101.1,78.6,101.2,78,101.2z M96.4,99.6v1.4
		h-6.8v-1.4H96.4z M90,88.2V101h-1.7V88.2H90z M95.5,93.7v1.4h-5.9v-1.4H95.5z M96.4,88.2v1.4h-6.7v-1.4H96.4z M99.9,93.5v7.5h-1.6
		v-9.5h1.5L99.9,93.5z M99.5,95.9l-0.7,0c0-0.7,0.1-1.3,0.3-1.8c0.2-0.6,0.5-1,0.8-1.5c0.3-0.4,0.7-0.7,1.2-0.9
		c0.5-0.2,1-0.3,1.6-0.3c0.5,0,0.9,0.1,1.3,0.2c0.4,0.1,0.7,0.3,1,0.6c0.3,0.3,0.5,0.6,0.6,1.1c0.1,0.4,0.2,1,0.2,1.6v6.2h-1.6v-6.2
		c0-0.5-0.1-0.9-0.2-1.2c-0.1-0.3-0.4-0.5-0.6-0.7c-0.3-0.1-0.6-0.2-1-0.2c-0.4,0-0.8,0.1-1.1,0.3c-0.3,0.2-0.6,0.4-0.9,0.7
		c-0.2,0.3-0.4,0.6-0.6,1C99.6,95.1,99.5,95.5,99.5,95.9z M114.4,91.5h1.5v9.3c0,0.8-0.2,1.6-0.5,2.1c-0.3,0.6-0.8,1-1.4,1.3
		c-0.6,0.3-1.3,0.5-2.1,0.5c-0.3,0-0.7-0.1-1.2-0.2c-0.4-0.1-0.9-0.3-1.3-0.5c-0.4-0.2-0.8-0.6-1.1-1l0.9-1c0.4,0.5,0.8,0.8,1.2,1
		c0.4,0.2,0.9,0.3,1.3,0.3c0.5,0,1-0.1,1.3-0.3s0.7-0.5,0.9-0.9c0.2-0.4,0.3-0.8,0.3-1.4v-7.3L114.4,91.5z M107.9,96.4v-0.2
		c0-0.7,0.1-1.4,0.3-2c0.2-0.6,0.4-1.1,0.7-1.5c0.3-0.4,0.7-0.8,1.2-1c0.5-0.2,1-0.4,1.6-0.4c0.6,0,1.1,0.1,1.6,0.3
		c0.5,0.2,0.8,0.5,1.1,0.9c0.3,0.4,0.6,0.9,0.7,1.4c0.2,0.6,0.3,1.2,0.4,1.9v0.8c-0.1,0.7-0.2,1.3-0.4,1.9c-0.2,0.6-0.4,1-0.7,1.4
		c-0.3,0.4-0.7,0.7-1.1,0.9c-0.5,0.2-1,0.3-1.6,0.3c-0.6,0-1.1-0.1-1.5-0.4c-0.5-0.2-0.9-0.6-1.2-1c-0.3-0.4-0.6-0.9-0.8-1.5
		C107.9,97.7,107.9,97,107.9,96.4z M109.5,96.2v0.2c0,0.5,0,0.9,0.1,1.3c0.1,0.4,0.2,0.8,0.4,1.1c0.2,0.3,0.5,0.6,0.8,0.7
		c0.3,0.2,0.7,0.3,1.1,0.3c0.5,0,1-0.1,1.3-0.3c0.4-0.2,0.6-0.5,0.8-0.9c0.2-0.4,0.4-0.8,0.5-1.2v-2.1c-0.1-0.3-0.2-0.6-0.3-0.9
		c-0.1-0.3-0.3-0.6-0.5-0.8c-0.2-0.2-0.5-0.4-0.8-0.6s-0.7-0.2-1.1-0.2c-0.4,0-0.8,0.1-1.2,0.3c-0.3,0.2-0.6,0.4-0.8,0.8
		c-0.2,0.3-0.3,0.7-0.4,1.1C109.5,95.2,109.5,95.7,109.5,96.2z M124,99.4v-4.9c0-0.4-0.1-0.7-0.2-1c-0.1-0.3-0.4-0.5-0.7-0.7
		c-0.3-0.2-0.7-0.2-1.1-0.2c-0.4,0-0.8,0.1-1.1,0.2c-0.3,0.1-0.5,0.3-0.7,0.6c-0.2,0.2-0.3,0.5-0.3,0.7h-1.6c0-0.3,0.1-0.7,0.3-1
		s0.4-0.6,0.8-0.9c0.3-0.3,0.7-0.5,1.2-0.7c0.5-0.2,1-0.2,1.6-0.2c0.7,0,1.3,0.1,1.8,0.4c0.5,0.2,0.9,0.6,1.2,1.1
		c0.3,0.5,0.5,1.1,0.5,1.8v4.4c0,0.3,0,0.7,0.1,1c0.1,0.4,0.1,0.7,0.3,0.9v0.1h-1.7c-0.1-0.2-0.1-0.4-0.2-0.7
		C124,99.9,124,99.6,124,99.4z M124.2,95.2l0,1.1h-1.6c-0.5,0-0.9,0-1.2,0.1c-0.4,0.1-0.7,0.2-0.9,0.3c-0.2,0.1-0.4,0.3-0.6,0.6
		c-0.1,0.2-0.2,0.5-0.2,0.8c0,0.3,0.1,0.6,0.2,0.8c0.1,0.2,0.3,0.4,0.6,0.6c0.3,0.1,0.6,0.2,1,0.2c0.5,0,0.9-0.1,1.3-0.3
		c0.4-0.2,0.7-0.5,0.9-0.8c0.2-0.3,0.4-0.6,0.4-0.9l0.7,0.8c0,0.2-0.2,0.5-0.3,0.8c-0.2,0.3-0.4,0.6-0.7,0.9
		c-0.3,0.3-0.7,0.5-1.1,0.7c-0.4,0.2-0.9,0.3-1.4,0.3c-0.6,0-1.2-0.1-1.7-0.4c-0.5-0.3-0.9-0.6-1.1-1c-0.3-0.4-0.4-0.9-0.4-1.4
		c0-0.5,0.1-1,0.3-1.3c0.2-0.4,0.5-0.7,0.9-1c0.4-0.3,0.8-0.5,1.4-0.6c0.5-0.1,1.1-0.2,1.8-0.2H124.2z M134.3,91.5h1.5v9.3
		c0,0.8-0.2,1.6-0.5,2.1c-0.3,0.6-0.8,1-1.4,1.3c-0.6,0.3-1.3,0.5-2.1,0.5c-0.3,0-0.7-0.1-1.2-0.2c-0.4-0.1-0.9-0.3-1.3-0.5
		c-0.4-0.2-0.8-0.6-1.1-1l0.9-1c0.4,0.5,0.8,0.8,1.2,1c0.4,0.2,0.9,0.3,1.3,0.3c0.5,0,1-0.1,1.3-0.3s0.7-0.5,0.9-0.9
		c0.2-0.4,0.3-0.8,0.3-1.4v-7.3L134.3,91.5z M127.8,96.4v-0.2c0-0.7,0.1-1.4,0.3-2c0.2-0.6,0.4-1.1,0.7-1.5c0.3-0.4,0.7-0.8,1.2-1
		c0.5-0.2,1-0.4,1.6-0.4c0.6,0,1.1,0.1,1.6,0.3c0.5,0.2,0.8,0.5,1.1,0.9c0.3,0.4,0.6,0.9,0.7,1.4c0.2,0.6,0.3,1.2,0.4,1.9v0.8
		c-0.1,0.7-0.2,1.3-0.4,1.9c-0.2,0.6-0.4,1-0.7,1.4c-0.3,0.4-0.7,0.7-1.1,0.9c-0.5,0.2-1,0.3-1.6,0.3c-0.6,0-1.1-0.1-1.5-0.4
		c-0.5-0.2-0.8-0.6-1.2-1c-0.3-0.4-0.6-0.9-0.8-1.5C127.8,97.7,127.8,97,127.8,96.4z M129.4,96.2v0.2c0,0.5,0,0.9,0.1,1.3
		c0.1,0.4,0.2,0.8,0.4,1.1c0.2,0.3,0.5,0.6,0.8,0.7c0.3,0.2,0.7,0.3,1.1,0.3c0.5,0,1-0.1,1.3-0.3c0.4-0.2,0.6-0.5,0.8-0.9
		c0.2-0.4,0.4-0.8,0.5-1.2v-2.1c-0.1-0.3-0.2-0.6-0.3-0.9c-0.1-0.3-0.3-0.6-0.5-0.8c-0.2-0.2-0.5-0.4-0.8-0.6
		c-0.3-0.1-0.7-0.2-1.1-0.2c-0.4,0-0.8,0.1-1.2,0.3c-0.3,0.2-0.6,0.4-0.8,0.8c-0.2,0.3-0.3,0.7-0.4,1.1
		C129.4,95.2,129.4,95.7,129.4,96.2z M142.2,101.2c-0.7,0-1.3-0.1-1.8-0.3c-0.5-0.2-1-0.5-1.4-1c-0.4-0.4-0.7-0.9-0.9-1.5
		c-0.2-0.6-0.3-1.2-0.3-1.8v-0.4c0-0.8,0.1-1.5,0.3-2.1c0.2-0.6,0.5-1.1,0.9-1.5c0.4-0.4,0.8-0.7,1.3-1c0.5-0.2,1-0.3,1.5-0.3
		c0.7,0,1.3,0.1,1.8,0.4c0.5,0.2,0.9,0.6,1.2,1c0.3,0.4,0.6,0.9,0.7,1.5c0.2,0.6,0.2,1.2,0.2,1.8v0.7h-7.1v-1.3h5.5v-0.1
		c0-0.4-0.1-0.8-0.3-1.2c-0.1-0.4-0.4-0.7-0.7-1c-0.3-0.3-0.8-0.4-1.3-0.4c-0.4,0-0.7,0.1-1,0.2c-0.3,0.2-0.6,0.4-0.8,0.7
		c-0.2,0.3-0.4,0.7-0.5,1.1c-0.1,0.4-0.2,0.9-0.2,1.5v0.4c0,0.5,0.1,0.9,0.2,1.3c0.1,0.4,0.3,0.7,0.6,1c0.2,0.3,0.5,0.5,0.9,0.7
		c0.4,0.2,0.8,0.3,1.2,0.3c0.6,0,1.1-0.1,1.5-0.4c0.4-0.2,0.7-0.5,1-0.9l1,0.8c-0.2,0.3-0.5,0.6-0.8,0.9c-0.3,0.3-0.7,0.5-1.2,0.7
		C143.4,101.1,142.8,101.2,142.2,101.2z M149.4,93.4v7.6h-1.6v-9.5h1.5L149.4,93.4z M149.1,95.9l-0.8,0c0-0.7,0.1-1.3,0.3-1.8
		c0.2-0.6,0.4-1,0.7-1.5c0.3-0.4,0.7-0.7,1.2-0.9c0.5-0.2,1-0.3,1.7-0.3c0.4,0,0.9,0.1,1.2,0.2c0.4,0.1,0.7,0.3,1,0.6
		c0.3,0.3,0.5,0.6,0.6,1c0.2,0.4,0.2,0.9,0.2,1.5v6.3h-1.6v-6.3c0-0.5-0.1-0.9-0.3-1.2c-0.2-0.3-0.4-0.5-0.7-0.7
		c-0.3-0.1-0.7-0.2-1.1-0.2c-0.5,0-0.9,0.1-1.2,0.3c-0.3,0.2-0.6,0.4-0.8,0.7c-0.2,0.3-0.3,0.6-0.4,1
		C149.1,95.1,149.1,95.5,149.1,95.9z M155.2,95l-1.1,0.3c0-0.5,0.1-1,0.3-1.5c0.2-0.5,0.4-0.9,0.7-1.3c0.3-0.4,0.7-0.7,1.2-0.9
		c0.5-0.2,1-0.3,1.6-0.3c0.5,0,1,0.1,1.4,0.2c0.4,0.1,0.7,0.3,1,0.6c0.3,0.3,0.5,0.6,0.6,1.1c0.1,0.4,0.2,0.9,0.2,1.5v6.2h-1.6v-6.3
		c0-0.5-0.1-0.9-0.3-1.2c-0.2-0.3-0.4-0.5-0.7-0.6c-0.3-0.1-0.7-0.2-1.1-0.2c-0.4,0-0.7,0.1-0.9,0.2c-0.3,0.1-0.5,0.3-0.7,0.5
		c-0.2,0.2-0.3,0.5-0.4,0.7C155.3,94.4,155.2,94.7,155.2,95z M167.5,101.2c-0.7,0-1.3-0.1-1.8-0.3c-0.5-0.2-1-0.5-1.4-1
		c-0.4-0.4-0.7-0.9-0.9-1.5c-0.2-0.6-0.3-1.2-0.3-1.8v-0.4c0-0.8,0.1-1.5,0.3-2.1c0.2-0.6,0.5-1.1,0.9-1.5c0.4-0.4,0.8-0.7,1.3-1
		c0.5-0.2,1-0.3,1.5-0.3c0.7,0,1.3,0.1,1.8,0.4c0.5,0.2,0.9,0.6,1.2,1c0.3,0.4,0.6,0.9,0.7,1.5c0.2,0.6,0.2,1.2,0.2,1.8v0.7h-7.1
		v-1.3h5.5v-0.1c0-0.4-0.1-0.8-0.3-1.2c-0.1-0.4-0.4-0.7-0.7-1c-0.3-0.3-0.8-0.4-1.3-0.4c-0.4,0-0.7,0.1-1,0.2
		c-0.3,0.2-0.6,0.4-0.8,0.7c-0.2,0.3-0.4,0.7-0.5,1.1c-0.1,0.4-0.2,0.9-0.2,1.5v0.4c0,0.5,0.1,0.9,0.2,1.3c0.1,0.4,0.3,0.7,0.6,1
		c0.2,0.3,0.5,0.5,0.9,0.7c0.4,0.2,0.8,0.3,1.2,0.3c0.6,0,1.1-0.1,1.5-0.4c0.4-0.2,0.7-0.5,1-0.9l1,0.8c-0.2,0.3-0.5,0.6-0.8,0.9
		c-0.3,0.3-0.7,0.5-1.2,0.7C168.7,101.1,168.2,101.2,167.5,101.2z M174.8,93.5v7.5h-1.6v-9.5h1.5L174.8,93.5z M174.4,95.9l-0.7,0
		c0-0.7,0.1-1.3,0.3-1.8c0.2-0.6,0.5-1,0.8-1.5c0.3-0.4,0.7-0.7,1.2-0.9c0.5-0.2,1-0.3,1.6-0.3c0.5,0,0.9,0.1,1.3,0.2
		c0.4,0.1,0.7,0.3,1,0.6c0.3,0.3,0.5,0.6,0.6,1.1c0.1,0.4,0.2,1,0.2,1.6v6.2H179v-6.2c0-0.5-0.1-0.9-0.2-1.2
		c-0.1-0.3-0.4-0.5-0.6-0.7c-0.3-0.1-0.6-0.2-1-0.2c-0.4,0-0.8,0.1-1.1,0.3c-0.3,0.2-0.6,0.4-0.9,0.7c-0.2,0.3-0.4,0.6-0.6,1
		C174.4,95.1,174.4,95.5,174.4,95.9z M187.1,91.5v1.2h-5.1v-1.2H187.1z M183.7,89.2h1.6v9.5c0,0.3,0.1,0.6,0.1,0.7
		c0.1,0.2,0.2,0.3,0.4,0.3c0.2,0.1,0.3,0.1,0.5,0.1c0.1,0,0.3,0,0.4,0c0.2,0,0.3-0.1,0.3-0.1l0,1.3c-0.1,0-0.3,0.1-0.5,0.1
		c-0.2,0-0.5,0.1-0.7,0.1c-0.4,0-0.8-0.1-1.1-0.2c-0.3-0.2-0.6-0.4-0.8-0.8c-0.2-0.4-0.3-0.9-0.3-1.5V89.2z M201.6,94.1v1.5h-8.8
		v-1.5H201.6z M198.1,90.4v9.3h-1.6v-9.3H198.1z M216.5,99.6v1.4h-6.8v-1.4H216.5z M210.1,88.2V101h-1.7V88.2H210.1z M215.6,93.7
		v1.4h-5.9v-1.4H215.6z M216.4,88.2v1.4h-6.7v-1.4H216.4z M220,93.4v7.6h-1.6v-9.5h1.5L220,93.4z M219.6,95.9l-0.8,0
		c0-0.7,0.1-1.3,0.3-1.8c0.2-0.6,0.4-1,0.7-1.5c0.3-0.4,0.7-0.7,1.2-0.9c0.5-0.2,1-0.3,1.7-0.3c0.4,0,0.9,0.1,1.2,0.2
		c0.4,0.1,0.7,0.3,1,0.6c0.3,0.3,0.5,0.6,0.6,1c0.2,0.4,0.2,0.9,0.2,1.5v6.3h-1.6v-6.3c0-0.5-0.1-0.9-0.3-1.2
		c-0.2-0.3-0.4-0.5-0.7-0.7c-0.3-0.1-0.7-0.2-1.1-0.2c-0.5,0-0.9,0.1-1.2,0.3c-0.3,0.2-0.6,0.4-0.8,0.7c-0.2,0.3-0.3,0.6-0.4,1
		C219.7,95.1,219.6,95.5,219.6,95.9z M225.8,95l-1.1,0.3c0-0.5,0.1-1,0.3-1.5c0.2-0.5,0.4-0.9,0.7-1.3c0.3-0.4,0.7-0.7,1.2-0.9
		c0.5-0.2,1-0.3,1.6-0.3c0.5,0,1,0.1,1.4,0.2c0.4,0.1,0.7,0.3,1,0.6c0.3,0.3,0.5,0.6,0.6,1.1c0.1,0.4,0.2,0.9,0.2,1.5v6.2H230v-6.3
		c0-0.5-0.1-0.9-0.3-1.2c-0.2-0.3-0.4-0.5-0.7-0.6c-0.3-0.1-0.7-0.2-1.1-0.2c-0.4,0-0.7,0.1-0.9,0.2c-0.3,0.1-0.5,0.3-0.7,0.5
		c-0.2,0.2-0.3,0.5-0.4,0.7C225.8,94.4,225.8,94.7,225.8,95z M233.7,96.4v-0.2c0-0.7,0.1-1.3,0.3-1.9c0.2-0.6,0.5-1.1,0.9-1.5
		c0.4-0.4,0.8-0.8,1.4-1c0.5-0.2,1.1-0.4,1.8-0.4c0.7,0,1.3,0.1,1.8,0.4c0.5,0.2,1,0.6,1.4,1c0.4,0.4,0.7,0.9,0.9,1.5
		c0.2,0.6,0.3,1.2,0.3,1.9v0.2c0,0.7-0.1,1.3-0.3,1.9c-0.2,0.6-0.5,1.1-0.9,1.5c-0.4,0.4-0.8,0.8-1.4,1c-0.5,0.2-1.1,0.4-1.8,0.4
		s-1.3-0.1-1.8-0.4c-0.5-0.2-1-0.6-1.4-1c-0.4-0.4-0.7-1-0.9-1.5C233.8,97.7,233.7,97,233.7,96.4z M235.3,96.1v0.2
		c0,0.5,0.1,0.9,0.2,1.3c0.1,0.4,0.3,0.8,0.5,1.1c0.2,0.3,0.5,0.6,0.9,0.8c0.3,0.2,0.7,0.3,1.2,0.3c0.4,0,0.8-0.1,1.2-0.3
		c0.3-0.2,0.6-0.4,0.8-0.8c0.2-0.3,0.4-0.7,0.5-1.1c0.1-0.4,0.2-0.9,0.2-1.3v-0.2c0-0.5-0.1-0.9-0.2-1.3c-0.1-0.4-0.3-0.8-0.5-1.1
		c-0.2-0.3-0.5-0.6-0.8-0.8c-0.3-0.2-0.7-0.3-1.2-0.3c-0.4,0-0.8,0.1-1.2,0.3c-0.3,0.2-0.6,0.4-0.8,0.8c-0.2,0.3-0.4,0.7-0.5,1.1
		C235.4,95.2,235.3,95.7,235.3,96.1z M248.4,91.5v1.2h-5.1v-1.2H248.4z M245,89.2h1.6v9.5c0,0.3,0,0.6,0.1,0.7
		c0.1,0.2,0.2,0.3,0.4,0.3c0.2,0.1,0.3,0.1,0.5,0.1c0.1,0,0.3,0,0.4,0c0.2,0,0.3-0.1,0.3-0.1l0,1.3c-0.1,0-0.3,0.1-0.5,0.1
		c-0.2,0-0.5,0.1-0.7,0.1c-0.4,0-0.8-0.1-1.1-0.2c-0.3-0.2-0.6-0.4-0.8-0.8c-0.2-0.4-0.3-0.9-0.3-1.5V89.2z M252,91.5v9.5h-1.6v-9.5
		H252z M250.3,89c0-0.3,0.1-0.5,0.2-0.7c0.2-0.2,0.4-0.3,0.7-0.3c0.3,0,0.5,0.1,0.7,0.3c0.2,0.2,0.3,0.4,0.3,0.7
		c0,0.3-0.1,0.5-0.3,0.7c-0.2,0.2-0.4,0.3-0.7,0.3c-0.3,0-0.6-0.1-0.7-0.3C250.4,89.4,250.3,89.2,250.3,89z M254.2,96.4v-0.2
		c0-0.7,0.1-1.3,0.3-1.9c0.2-0.6,0.5-1.1,0.9-1.5c0.4-0.4,0.8-0.8,1.4-1c0.5-0.2,1.1-0.4,1.8-0.4c0.7,0,1.3,0.1,1.8,0.4
		c0.5,0.2,1,0.6,1.4,1c0.4,0.4,0.7,0.9,0.9,1.5c0.2,0.6,0.3,1.2,0.3,1.9v0.2c0,0.7-0.1,1.3-0.3,1.9c-0.2,0.6-0.5,1.1-0.9,1.5
		c-0.4,0.4-0.8,0.8-1.4,1c-0.5,0.2-1.1,0.4-1.8,0.4s-1.3-0.1-1.8-0.4c-0.5-0.2-1-0.6-1.4-1c-0.4-0.4-0.7-1-0.9-1.5
		C254.3,97.7,254.2,97,254.2,96.4z M255.9,96.1v0.2c0,0.5,0.1,0.9,0.2,1.3c0.1,0.4,0.3,0.8,0.5,1.1c0.2,0.3,0.5,0.6,0.9,0.8
		c0.3,0.2,0.7,0.3,1.2,0.3c0.4,0,0.8-0.1,1.2-0.3c0.3-0.2,0.6-0.4,0.8-0.8c0.2-0.3,0.4-0.7,0.5-1.1c0.1-0.4,0.2-0.9,0.2-1.3v-0.2
		c0-0.5-0.1-0.9-0.2-1.3c-0.1-0.4-0.3-0.8-0.5-1.1c-0.2-0.3-0.5-0.6-0.8-0.8c-0.3-0.2-0.7-0.3-1.2-0.3c-0.4,0-0.8,0.1-1.2,0.3
		c-0.3,0.2-0.6,0.4-0.8,0.8c-0.2,0.3-0.4,0.7-0.5,1.1C255.9,95.2,255.9,95.7,255.9,96.1z M266.5,93.5v7.5h-1.6v-9.5h1.5L266.5,93.5z
		 M266.2,95.9l-0.7,0c0-0.7,0.1-1.3,0.3-1.8c0.2-0.6,0.5-1,0.8-1.5c0.3-0.4,0.7-0.7,1.2-0.9c0.5-0.2,1-0.3,1.6-0.3
		c0.5,0,0.9,0.1,1.3,0.2c0.4,0.1,0.7,0.3,1,0.6c0.3,0.3,0.5,0.6,0.6,1.1c0.1,0.4,0.2,1,0.2,1.6v6.2h-1.6v-6.2c0-0.5-0.1-0.9-0.2-1.2
		c-0.1-0.3-0.4-0.5-0.6-0.7c-0.3-0.1-0.6-0.2-1-0.2c-0.4,0-0.8,0.1-1.1,0.3c-0.3,0.2-0.6,0.4-0.9,0.7c-0.2,0.3-0.4,0.6-0.6,1
		C266.2,95.1,266.2,95.5,266.2,95.9z M283,101h-2.7l0-1.4h2.7c0.9,0,1.7-0.2,2.3-0.6c0.6-0.4,1.1-0.9,1.4-1.6
		c0.3-0.7,0.5-1.5,0.5-2.4v-0.8c0-0.7-0.1-1.4-0.3-2c-0.2-0.6-0.4-1.1-0.8-1.5c-0.3-0.4-0.8-0.7-1.2-0.9c-0.5-0.2-1-0.3-1.7-0.3
		h-2.9v-1.4h2.9c0.8,0,1.6,0.1,2.3,0.4c0.7,0.3,1.3,0.7,1.8,1.2c0.5,0.5,0.9,1.2,1.2,1.9c0.3,0.7,0.4,1.6,0.4,2.5V95
		c0,0.9-0.1,1.8-0.4,2.5c-0.3,0.7-0.7,1.4-1.2,1.9c-0.5,0.5-1.1,0.9-1.8,1.2C284.7,100.9,283.9,101,283,101z M281.3,88.2V101h-1.7
		V88.2H281.3z M295.1,101.2c-0.7,0-1.3-0.1-1.8-0.3c-0.5-0.2-1-0.5-1.4-1c-0.4-0.4-0.7-0.9-0.9-1.5c-0.2-0.6-0.3-1.2-0.3-1.8v-0.4
		c0-0.8,0.1-1.5,0.3-2.1c0.2-0.6,0.5-1.1,0.9-1.5c0.4-0.4,0.8-0.7,1.3-1c0.5-0.2,1-0.3,1.5-0.3c0.7,0,1.3,0.1,1.8,0.4
		c0.5,0.2,0.9,0.6,1.2,1c0.3,0.4,0.6,0.9,0.7,1.5c0.2,0.6,0.2,1.2,0.2,1.8v0.7h-7.1v-1.3h5.5v-0.1c0-0.4-0.1-0.8-0.3-1.2
		c-0.1-0.4-0.4-0.7-0.7-1c-0.3-0.3-0.8-0.4-1.3-0.4c-0.4,0-0.7,0.1-1,0.2c-0.3,0.2-0.6,0.4-0.8,0.7c-0.2,0.3-0.4,0.7-0.5,1.1
		c-0.1,0.4-0.2,0.9-0.2,1.5v0.4c0,0.5,0.1,0.9,0.2,1.3c0.1,0.4,0.3,0.7,0.6,1c0.2,0.3,0.5,0.5,0.9,0.7c0.4,0.2,0.8,0.3,1.2,0.3
		c0.6,0,1.1-0.1,1.5-0.4c0.4-0.2,0.7-0.5,1-0.9l1,0.8c-0.2,0.3-0.5,0.6-0.8,0.9c-0.3,0.3-0.7,0.5-1.2,0.7
		C296.3,101.1,295.7,101.2,295.1,101.2z M304.7,91.5v1.2h-5.1v-1.2H304.7z M301.3,89.2h1.6v9.5c0,0.3,0.1,0.6,0.1,0.7
		c0.1,0.2,0.2,0.3,0.4,0.3c0.2,0.1,0.3,0.1,0.5,0.1c0.1,0,0.3,0,0.4,0c0.2,0,0.3-0.1,0.3-0.1l0,1.3c-0.1,0-0.3,0.1-0.5,0.1
		c-0.2,0-0.5,0.1-0.7,0.1c-0.4,0-0.8-0.1-1.1-0.2c-0.3-0.2-0.6-0.4-0.8-0.8c-0.2-0.4-0.3-0.9-0.3-1.5V89.2z M310.5,101.2
		c-0.7,0-1.3-0.1-1.8-0.3c-0.5-0.2-1-0.5-1.4-1c-0.4-0.4-0.7-0.9-0.9-1.5c-0.2-0.6-0.3-1.2-0.3-1.8v-0.4c0-0.8,0.1-1.5,0.3-2.1
		c0.2-0.6,0.5-1.1,0.9-1.5c0.4-0.4,0.8-0.7,1.3-1c0.5-0.2,1-0.3,1.5-0.3c0.7,0,1.3,0.1,1.8,0.4c0.5,0.2,0.9,0.6,1.2,1
		c0.3,0.4,0.6,0.9,0.7,1.5c0.2,0.6,0.2,1.2,0.2,1.8v0.7h-7.1v-1.3h5.5v-0.1c0-0.4-0.1-0.8-0.3-1.2c-0.1-0.4-0.4-0.7-0.7-1
		c-0.3-0.3-0.8-0.4-1.3-0.4c-0.4,0-0.7,0.1-1,0.2c-0.3,0.2-0.6,0.4-0.8,0.7c-0.2,0.3-0.4,0.7-0.5,1.1c-0.1,0.4-0.2,0.9-0.2,1.5v0.4
		c0,0.5,0.1,0.9,0.2,1.3c0.1,0.4,0.3,0.7,0.6,1c0.2,0.3,0.5,0.5,0.9,0.7c0.4,0.2,0.8,0.3,1.2,0.3c0.6,0,1.1-0.1,1.5-0.4
		c0.4-0.2,0.7-0.5,1-0.9l1,0.8c-0.2,0.3-0.5,0.6-0.8,0.9c-0.3,0.3-0.7,0.5-1.2,0.7C311.7,101.1,311.2,101.2,310.5,101.2z
		 M319.9,99.8c0.4,0,0.7-0.1,1.1-0.2c0.3-0.2,0.6-0.4,0.8-0.7c0.2-0.3,0.3-0.6,0.4-1h1.5c0,0.6-0.2,1.1-0.6,1.6
		c-0.3,0.5-0.8,0.9-1.4,1.2c-0.6,0.3-1.2,0.4-1.9,0.4c-0.7,0-1.3-0.1-1.9-0.4c-0.5-0.3-1-0.6-1.3-1c-0.3-0.4-0.6-0.9-0.8-1.5
		c-0.2-0.6-0.3-1.2-0.3-1.8v-0.4c0-0.6,0.1-1.2,0.3-1.8c0.2-0.6,0.4-1.1,0.8-1.5c0.4-0.4,0.8-0.8,1.3-1c0.5-0.3,1.2-0.4,1.9-0.4
		c0.7,0,1.4,0.2,2,0.5c0.6,0.3,1,0.7,1.3,1.2c0.3,0.5,0.5,1.1,0.5,1.8h-1.5c0-0.4-0.1-0.7-0.3-1.1c-0.2-0.3-0.4-0.6-0.8-0.8
		c-0.3-0.2-0.7-0.3-1.1-0.3c-0.5,0-0.9,0.1-1.3,0.3c-0.3,0.2-0.6,0.5-0.8,0.8c-0.2,0.3-0.3,0.7-0.4,1.1c-0.1,0.4-0.1,0.8-0.1,1.2
		v0.4c0,0.4,0,0.8,0.1,1.2c0.1,0.4,0.2,0.8,0.4,1.1c0.2,0.3,0.5,0.6,0.8,0.8C319,99.7,319.4,99.8,319.9,99.8z M329.5,91.5v1.2h-5.1
		v-1.2H329.5z M326.1,89.2h1.6v9.5c0,0.3,0,0.6,0.1,0.7c0.1,0.2,0.2,0.3,0.4,0.3c0.2,0.1,0.3,0.1,0.5,0.1c0.1,0,0.3,0,0.4,0
		c0.2,0,0.3-0.1,0.3-0.1l0,1.3c-0.1,0-0.3,0.1-0.5,0.1c-0.2,0-0.5,0.1-0.7,0.1c-0.4,0-0.8-0.1-1.1-0.2c-0.3-0.2-0.6-0.4-0.8-0.8
		c-0.2-0.4-0.3-0.9-0.3-1.5V89.2z M333.2,91.5v9.5h-1.6v-9.5H333.2z M331.4,89c0-0.3,0.1-0.5,0.2-0.7c0.2-0.2,0.4-0.3,0.7-0.3
		c0.3,0,0.5,0.1,0.7,0.3c0.2,0.2,0.3,0.4,0.3,0.7c0,0.3-0.1,0.5-0.3,0.7c-0.2,0.2-0.4,0.3-0.7,0.3c-0.3,0-0.6-0.1-0.7-0.3
		C331.5,89.4,331.4,89.2,331.4,89z M335.4,96.4v-0.2c0-0.7,0.1-1.3,0.3-1.9c0.2-0.6,0.5-1.1,0.9-1.5c0.4-0.4,0.8-0.8,1.4-1
		c0.5-0.2,1.1-0.4,1.8-0.4c0.7,0,1.3,0.1,1.8,0.4c0.5,0.2,1,0.6,1.4,1c0.4,0.4,0.7,0.9,0.9,1.5c0.2,0.6,0.3,1.2,0.3,1.9v0.2
		c0,0.7-0.1,1.3-0.3,1.9c-0.2,0.6-0.5,1.1-0.9,1.5c-0.4,0.4-0.8,0.8-1.4,1c-0.5,0.2-1.1,0.4-1.8,0.4s-1.3-0.1-1.8-0.4
		c-0.5-0.2-1-0.6-1.4-1c-0.4-0.4-0.7-1-0.9-1.5C335.5,97.7,335.4,97,335.4,96.4z M337,96.1v0.2c0,0.5,0.1,0.9,0.2,1.3
		c0.1,0.4,0.3,0.8,0.5,1.1c0.2,0.3,0.5,0.6,0.9,0.8c0.3,0.2,0.7,0.3,1.2,0.3c0.4,0,0.8-0.1,1.2-0.3c0.3-0.2,0.6-0.4,0.8-0.8
		c0.2-0.3,0.4-0.7,0.5-1.1c0.1-0.4,0.2-0.9,0.2-1.3v-0.2c0-0.5-0.1-0.9-0.2-1.3c-0.1-0.4-0.3-0.8-0.5-1.1c-0.2-0.3-0.5-0.6-0.8-0.8
		c-0.3-0.2-0.7-0.3-1.2-0.3c-0.4,0-0.8,0.1-1.2,0.3c-0.3,0.2-0.6,0.4-0.8,0.8c-0.2,0.3-0.4,0.7-0.5,1.1
		C337.1,95.2,337,95.7,337,96.1z M347.7,93.5v7.5h-1.6v-9.5h1.5L347.7,93.5z M347.3,95.9l-0.7,0c0-0.7,0.1-1.3,0.3-1.8
		c0.2-0.6,0.5-1,0.8-1.5c0.3-0.4,0.7-0.7,1.2-0.9c0.5-0.2,1-0.3,1.6-0.3c0.5,0,0.9,0.1,1.3,0.2c0.4,0.1,0.7,0.3,1,0.6
		c0.3,0.3,0.5,0.6,0.6,1.1c0.1,0.4,0.2,1,0.2,1.6v6.2h-1.6v-6.2c0-0.5-0.1-0.9-0.2-1.2c-0.1-0.3-0.4-0.5-0.6-0.7
		c-0.3-0.1-0.6-0.2-1-0.2c-0.4,0-0.8,0.1-1.1,0.3c-0.3,0.2-0.6,0.4-0.9,0.7c-0.2,0.3-0.4,0.6-0.6,1
		C347.4,95.1,347.3,95.5,347.3,95.9z"/>
</g>
</svg>
