<?xml version="1.0" encoding="utf-8"?>
<!-- Generator: Adobe Illustrator 21.0.0, SVG Export Plug-In . SVG Version: 6.00 Build 0)  -->
<svg version="1.1" id="Layer_1" xmlns="http://www.w3.org/2000/svg" xmlns:xlink="http://www.w3.org/1999/xlink" x="0px" y="0px"
	 viewBox="0 0 251 320" style="enable-background:new 0 0 251 320;" xml:space="preserve">
<style type="text/css">
	.st0{fill:#FFFFFF;}
</style>
<g>
	<path class="st0" d="M173.6,142.4c-3.1,5.7-6.5,11.3-9.7,16.9c-4.3,7.5-7.1,15.4-7.7,24c-0.2,3.8-0.7,7.6-1.3,11.3
		c-1.3,7.5-3.8,14.6-9.6,19.9c-10.8,9.7-19.1,21.3-26.5,33.5l-41.3-20.3c2.7-3.2,5-6.5,7.7-9.7c2.6-3.1,4.3-7.3,5.3-11.2
		c2.6-10.6,1.7-21.3-1.3-31.7c-3.3-11.5-6.9-23-10.1-34.5c-0.7-2.6-0.8-5.9,0.1-8.5c2.4-7.5,5.1-15,8.2-22.1
		c3.2-7.1,6.3-14.5,10.8-20.7c6.6-9,15.1-16.5,24.5-22.7c5-3.3,7.1-2.4,8.1,4.3c0.3,2-0.7,4.3-1.5,6.3c-0.6,1.5-1.8,2.7-2.9,4.3
		c3-1.8,5.5-3.5,8.3-5c3.8-1.9,5.8-0.7,6.2,3.6c0.4,3.9-1.4,7-3.8,9.8c-2.4,2.8-5,5.4-6.9,7.4c1.6-0.3,4.5-0.9,7.4-1.5
		c1.9-0.4,2.7,0.3,2.8,2.3c0.1,2.6-0.9,4.7-3,6.2c-3.1,2.2-6.1,4.5-9.3,6.5c-6.2,3.8-6.6,10.5-8.5,16.5c0.9-0.2,1.5-0.4,2-0.9
		c5.1-5,11.8-7,18.3-9.3c2.9-1,4.6,0.2,3.8,3.1c-0.7,2.4-2.5,4.6-4.3,6.4c-2.9,2.7-6.4,4.8-9.3,7.5c-3.3,3.1-6.9,6.2-7,11.3
		c0,1.9-0.3,3.8-0.3,5.7c-0.1,5.9,3.4,9.8,9.3,9.9c6.8,0.1,12.7-1.6,16.5-8.1c3.3-5.8,7.3-11.3,13-15.1c2-1.4,4.4-2.8,6.7-2.9
		c2.1-0.1,4.6,1.1,6.2,2.6C175,138.1,174.4,141,173.6,142.4z"/>
	<path class="st0" d="M177.9,117.2L177.9,117.2c-3.2,0.9-6.5-0.9-7.5-4l-15.7-52.3c-0.9-3.2,0.9-6.5,4-7.5l0,0
		c3.2-0.9,6.5,0.9,7.5,4l15.7,52.3C182.9,113,181.1,116.3,177.9,117.2z"/>
</g>
</svg>
